<?xml version="1.0" encoding="UTF-8"?>
<!DOCTYPE svg PUBLIC "-//W3C//DTD SVG 1.1//EN" "http://www.w3.org/Graphics/SVG/1.1/DTD/svg11.dtd">
<!-- Creator: CorelDRAW 2019 -->
<svg xmlns="http://www.w3.org/2000/svg" xml:space="preserve" width="120px" height="120px" version="1.1" shape-rendering="geometricPrecision" text-rendering="geometricPrecision" image-rendering="optimizeQuality" fill-rule="evenodd" clip-rule="evenodd"
viewBox="0 0 120 120"
 xmlns:xlink="http://www.w3.org/1999/xlink"
 xmlns:xodm="http://www.corel.com/coreldraw/odm/2003">
 <g id="Слой_x0020_1">
  <metadata id="CorelCorpID_0Corel-Layer"/>
  <g>
   <path fill="#DF66EC" fill-rule="nonzero" d="M51.24 36.82c0,-4.43 3.6,-8.02 8.03,-8.02 4.43,0 8.03,3.59 8.03,8.02l-16.06 0zm0 46.36l0 -46.36 16.06 0 0 46.36 -16.06 0zm16.06 0c0,4.43 -3.6,8.02 -8.03,8.02 -4.43,0 -8.03,-3.59 -8.03,-8.02l16.06 0z"/>
  </g>
  <path fill="#DF66EC" fill-rule="nonzero" d="M97.65 81.86l0 -43.97c0,-4.85 -1.21,-9.71 -3.16,-14.33 -1.94,-4.37 -4.61,-8.5 -8.01,-11.9 -3.4,-3.4 -7.53,-6.32 -12.15,-8.5 -4.61,-1.95 -9.47,-3.16 -14.33,-3.16 -5.34,0 -10.2,1.21 -14.57,3.16 -4.62,2.18 -8.75,5.1 -12.15,8.5 -3.64,3.4 -6.56,7.53 -8.5,11.9 -1.95,4.62 -2.92,9.48 -2.92,14.33l0 43.97c0,5.35 0.97,10.2 2.92,14.58 1.94,4.61 4.86,8.74 8.5,12.14 3.4,3.65 7.53,6.56 12.15,8.51 4.37,1.94 9.23,2.91 14.57,2.91 4.86,0 9.72,-0.97 14.33,-2.91 4.62,-1.95 8.75,-4.86 12.15,-8.51 3.4,-3.4 6.07,-7.53 8.01,-12.14 1.95,-4.38 3.16,-9.23 3.16,-14.58zm-16.03 -43.97l0 43.97c0,3.16 -0.73,6.08 -1.94,8.75 -1.22,2.67 -2.92,5.1 -4.86,7.04 -2.19,1.95 -4.62,3.65 -7.05,4.62 -2.67,1.21 -5.34,1.7 -7.77,1.7 -2.91,0 -5.59,-0.49 -8.02,-1.7 -2.67,-0.97 -5.1,-2.67 -7.04,-4.62 -1.94,-1.94 -3.65,-4.37 -4.86,-7.04 -1.46,-2.67 -1.94,-5.59 -1.94,-8.75l0 -43.97c0,-5.83 1.94,-10.93 6.31,-15.3 4.38,-4.37 9.48,-6.56 15.55,-6.56 2.91,0 5.59,0.73 8.26,1.7 2.43,1.22 4.86,2.92 6.8,4.86 1.94,1.94 3.4,4.37 4.62,7.05 1.21,2.67 1.94,5.34 1.94,8.25z"/>
 </g>
</svg>
