<?xml version="1.0" encoding="UTF-8"?>
<!DOCTYPE svg PUBLIC "-//W3C//DTD SVG 1.1//EN" "http://www.w3.org/Graphics/SVG/1.1/DTD/svg11.dtd">
<svg display="none" xmlns="http://www.w3.org/2000/svg">
    <g>
        <symbol id="t" viewBox="0 0 1200 1200">
          <polygon points="-1.13,85.8 0.16,71.1 3.98,56.84 10.22,43.47 18.68,31.38 29.12,20.94 41.21,12.48 54.58,6.24 68.84,2.42 83.54,1.13 1114.2,1.13 1128.9,2.42 1143.16,6.24 1156.54,12.48 1168.62,20.94 1179.06,31.38 1187.53,43.47 1193.76,56.84 1197.59,71.1 1198.87,85.8 1197.59,100.51 1193.76,114.76 1187.53,128.14 1179.06,140.23 1168.62,150.66 1156.54,159.13 1143.16,165.37 1128.9,169.19 1114.2,170.47 683.54,170.47 683.54,1116.46 682.25,1131.16 678.43,1145.42 672.2,1158.8 663.74,1170.88 653.29,1181.32 641.21,1189.78 627.83,1196.02 613.57,1199.84 598.88,1201.13 584.17,1199.84 569.91,1196.02 556.54,1189.78 544.45,1181.32 534.02,1170.88 525.55,1158.8 519.31,1145.42 515.49,1131.16 514.21,1116.46 514.21,170.47 83.54,170.47 68.84,169.19 54.58,165.37 41.21,159.13 29.12,150.66 18.68,140.23 10.22,128.14 3.98,114.76 0.16,100.51 "/>
        </symbol>
    </g>
    
    <g>
    
        <symbol id="themeSwitcher_sun" viewBox="0 0 302.4 302.4">
            <g>
                <g>
                    <path d="M204.8,97.6C191.2,84,172,75.2,151.2,75.2s-40,8.4-53.6,22.4c-13.6,13.6-22.4,32.8-22.4,53.6s8.8,40,22.4,53.6
                        c13.6,13.6,32.8,22.4,53.6,22.4s40-8.4,53.6-22.4c13.6-13.6,22.4-32.8,22.4-53.6S218.8,111.2,204.8,97.6z M190.4,190.4
                        c-10,10-24,16-39.2,16s-29.2-6-39.2-16s-16-24-16-39.2s6-29.2,16-39.2s24-16,39.2-16s29.2,6,39.2,16s16,24,16,39.2
                        S200.4,180.4,190.4,190.4z"/>
                </g>
            </g>
            <g>
                <g>
                    <path d="M292,140.8h-30.8c-5.6,0-10.4,4.8-10.4,10.4c0,5.6,4.8,10.4,10.4,10.4H292c5.6,0,10.4-4.8,10.4-10.4
                        C302.4,145.6,297.6,140.8,292,140.8z"/>
                </g>
            </g>
            <g>
                <g>
                    <path d="M151.2,250.8c-5.6,0-10.4,4.8-10.4,10.4V292c0,5.6,4.8,10.4,10.4,10.4c5.6,0,10.4-4.8,10.4-10.4v-30.8
                        C161.6,255.6,156.8,250.8,151.2,250.8z"/>
                </g>
            </g>
            <g>
                <g>
                    <path d="M258,243.6l-22-22c-3.6-4-10.4-4-14.4,0s-4,10.4,0,14.4l22,22c4,4,10.4,4,14.4,0S262,247.6,258,243.6z"/>
                </g>
            </g>
            <g>
                <g>
                    <path d="M151.2,0c-5.6,0-10.4,4.8-10.4,10.4v30.8c0,5.6,4.8,10.4,10.4,10.4c5.6,0,10.4-4.8,10.4-10.4V10.4
                        C161.6,4.8,156.8,0,151.2,0z"/>
                </g>
            </g>
            <g>
                <g>
                    <path d="M258.4,44.4c-4-4-10.4-4-14.4,0l-22,22c-4,4-4,10.4,0,14.4c3.6,4,10.4,4,14.4,0l22-22C262.4,54.8,262.4,48.4,258.4,44.4z"
                        />
                </g>
            </g>
            <g>
                <g>
                    <path d="M41.2,140.8H10.4c-5.6,0-10.4,4.8-10.4,10.4s4.4,10.4,10.4,10.4h30.8c5.6,0,10.4-4.8,10.4-10.4
                        C51.6,145.6,46.8,140.8,41.2,140.8z"/>
                </g>
            </g>
            <g>
                <g>
                    <path d="M80.4,221.6c-3.6-4-10.4-4-14.4,0l-22,22c-4,4-4,10.4,0,14.4s10.4,4,14.4,0l22-22C84.4,232,84.4,225.6,80.4,221.6z"/>
                </g>
            </g>
            <g>
                <g>
                    <path d="M80.4,66.4l-22-22c-4-4-10.4-4-14.4,0s-4,10.4,0,14.4l22,22c4,4,10.4,4,14.4,0S84.4,70.4,80.4,66.4z"/>
                </g>
            </g>
        </symbol>
    </g>

    <g>
        <symbol id="themeSwitcher_moon" viewBox="0 0 312.999 312.999">
            	<g>
                <path d="M305.6,178.053c-3.2-0.8-6.4,0-9.2,2c-10.4,8.8-22.4,16-35.6,20.8c-12.4,4.8-26,7.2-40.4,7.2c-32.4,0-62-13.2-83.2-34.4
                    c-21.2-21.2-34.4-50.8-34.4-83.2c0-13.6,2.4-26.8,6.4-38.8c4.4-12.8,10.8-24.4,19.2-34.4c3.6-4.4,2.8-10.8-1.6-14.4
                    c-2.8-2-6-2.8-9.2-2c-34,9.2-63.6,29.6-84.8,56.8c-20.4,26.8-32.8,60-32.8,96.4c0,43.6,17.6,83.2,46.4,112s68.4,46.4,112,46.4
                    c36.8,0,70.8-12.8,98-34c27.6-21.6,47.6-52.4,56-87.6C314.4,184.853,311.2,179.253,305.6,178.053z M244.4,261.653
                    c-23.2,18.4-52.8,29.6-85.2,29.6c-38,0-72.4-15.6-97.2-40.4c-24.8-24.8-40.4-59.2-40.4-97.2c0-31.6,10.4-60.4,28.4-83.6
                    c12.4-16,28-29.2,46-38.4c-2,4.4-4,8.8-5.6,13.6c-5.2,14.4-7.6,29.6-7.6,45.6c0,38,15.6,72.8,40.4,97.6s59.6,40.4,97.6,40.4
                    c16.8,0,32.8-2.8,47.6-8.4c5.2-2,10.4-4,15.2-6.4C274,232.453,260.8,248.853,244.4,261.653z"/>
	           </g>
        </symbol>
    </g>
    
    <g>
        <symbol id="btnX" viewBox="0 0 460.775 460.775">
            <path d="M285.08,230.397L456.218,59.27c6.076-6.077,6.076-15.911,0-21.986L423.511,4.565c-2.913-2.911-6.866-4.55-10.992-4.55
            c-4.127,0-8.08,1.639-10.993,4.55l-171.138,171.14L59.25,4.565c-2.913-2.911-6.866-4.55-10.993-4.55
            c-4.126,0-8.08,1.639-10.992,4.55L4.558,37.284c-6.077,6.075-6.077,15.909,0,21.986l171.138,171.128L4.575,401.505
            c-6.074,6.077-6.074,15.911,0,21.986l32.709,32.719c2.911,2.911,6.865,4.55,10.992,4.55c4.127,0,8.08-1.639,10.994-4.55
            l171.117-171.12l171.118,171.12c2.913,2.911,6.866,4.55,10.993,4.55c4.128,0,8.081-1.639,10.992-4.55l32.709-32.719
            c6.074-6.075,6.074-15.909,0-21.986L285.08,230.397z"/>
        </symbol>
    </g>
    
    <g>
        <symbol id="plus" viewBox="0 0 426.66667 426.66667">
            <path d="m405.332031 192h-170.664062v-170.667969c0-11.773437-9.558594-21.332031-21.335938-21.332031-11.773437 0-21.332031 9.558594-21.332031 21.332031v170.667969h-170.667969c-11.773437 0-21.332031 9.558594-21.332031 21.332031 0 11.777344 9.558594 21.335938 21.332031 21.335938h170.667969v170.664062c0 11.777344 9.558594 21.335938 21.332031 21.335938 11.777344 0 21.335938-9.558594 21.335938-21.335938v-170.664062h170.664062c11.777344 0 21.335938-9.558594 21.335938-21.335938 0-11.773437-9.558594-21.332031-21.335938-21.332031zm0 0"/>
        </symbol>
    </g>
    
    <g>
        <symbol id="arrow" viewBox="0 0 10500 14800">
         <!--   <path d="M135.685,3.128c-4.237-4.093-10.99-3.975-15.083,0.262c-3.992,4.134-3.992,10.687,0,14.82
	l227.115,227.136L120.581,472.461c-4.237,4.093-4.354,10.845-0.262,15.083c4.093,4.237,10.845,4.354,15.083,0.262
	c0.089-0.086,0.176-0.173,0.262-0.262l234.667-234.667c4.164-4.165,4.164-10.917,0-15.083L135.685,3.128z"/>
            <path d="M128.133,490.68c-5.891,0.011-10.675-4.757-10.686-10.648c-0.005-2.84,1.123-5.565,3.134-7.571l227.136-227.115
	L120.581,18.232c-4.171-4.171-4.171-10.933,0-15.104c4.171-4.171,10.933-4.171,15.104,0l234.667,234.667
	c4.164,4.165,4.164,10.917,0,15.083L135.685,487.544C133.685,489.551,130.967,490.68,128.133,490.68z"/> -->
    <g>
      <polygon points="6354.02,12083.91 6411.84,12228.47 6426.63,12383.33 6397.18,12535.96 6325.9,12674.34 6218.55,12786.87 6083.82,12864.7 5932.64,12901.31 5777.24,12894.02 5630.23,12843.14 5503.51,12752.8 5407.34,12630.59 2264.61,7187.11 5407.34,1743.8 5494.2,1630.6 5607.41,1543.74 5739.22,1489.13 5880.68,1470.51 6022.14,1489.13 6153.96,1543.74 6267.16,1630.6 6354.02,1743.8 6408.62,1875.61 6427.25,2017.07 6408.62,2158.54 6354.02,2290.35 3526.85,7187.11 "/>
     </g>
        </symbol>
    </g>
    
    <g>
        <symbol id="dropper" viewBox="0 0 32 32">
         <path d="M27.7,3.3c-1.5-1.5-3.9-1.5-5.4,0L17,8.6l-1.3-1.3c-0.4-0.4-1-0.4-1.4,0s-0.4,1,0,1.4l1.3,1.3L5,20.6
	c-0.6,0.6-1,1.4-1.1,2.3C3.3,23.4,3,24.2,3,25c0,1.7,1.3,3,3,3c0.8,0,1.6-0.3,2.2-0.9C9,27,9.8,26.6,10.4,26L21,15.4l1.3,1.3
	c0.2,0.2,0.5,0.3,0.7,0.3s0.5-0.1,0.7-0.3c0.4-0.4,0.4-1,0-1.4L22.4,14l5.3-5.3C29.2,7.2,29.2,4.8,27.7,3.3z M9,24.6
	c-0.4,0.4-0.8,0.6-1.3,0.5c-0.4,0-0.7,0.2-0.9,0.5C6.7,25.8,6.3,26,6,26c-0.6,0-1-0.4-1-1c0-0.3,0.2-0.7,0.5-0.8
	c0.3-0.2,0.5-0.5,0.5-0.9c0-0.5,0.2-1,0.5-1.3L17,11.4l2.6,2.6L9,24.6z"/>
        </symbol>
    </g>
    
    <g>
        <symbol id="downloadSvg" viewBox="0 0 1200 1200">
          <polygon points="-1.13,901.13 6.87,871.13 28.87,849.23 58.87,841.13 88.87,849.23 110.77,871.13 118.87,901.13 118.87,1021.13 126.87,1051.13 148.87,1073.13 178.87,1081.13 1018.87,1081.13 1048.87,1073.13 1070.77,1051.13 1078.87,1021.13 1078.87,901.13 1086.87,871.13 1108.87,849.23 1138.87,841.13 1168.87,849.23 1190.77,871.13 1198.87,901.13 1198.87,1021.13 1185.17,1090.03 1146.07,1148.43 1087.67,1187.43 1018.87,1201.13 178.87,1201.13 109.97,1187.43 51.57,1148.43 12.57,1090.03 -1.13,1021.13 "/>
          <polygon points="225.47,548.23 257.77,529.63 295.07,529.63 327.27,548.23 526.87,747.73 526.87,73.13 536.47,37.13 562.87,10.83 598.87,1.13 634.87,10.83 661.17,37.13 670.87,73.13 670.87,747.73 870.37,548.23 902.67,529.63 939.87,529.63 972.17,548.23 990.77,580.53 990.77,617.83 972.17,650.03 649.77,972.53 617.47,991.13 580.17,991.13 547.97,972.53 225.47,650.03 206.87,617.83 206.87,580.53 "/>
        </symbol>
    </g>
    
    <g>
        <symbol id="pinterestSvg" viewBox="0 0 24 24">
            <path d="M12.017 0C5.396 0 .029 5.367.029 11.987c0 5.079 3.158 9.417 7.618 11.162-.105-.949-.199-2.403.041-3.439.219-.937 1.406-5.957 1.406-5.957s-.359-.72-.359-1.781c0-1.663.967-2.911 2.168-2.911 1.024 0 1.518.769 1.518 1.688 0 1.029-.653 2.567-.992 3.992-.285 1.193.6 2.165 1.775 2.165 2.128 0 3.768-2.245 3.768-5.487 0-2.861-2.063-4.869-5.008-4.869-3.41 0-5.409 2.562-5.409 5.199 0 1.033.394 2.143.889 2.741.099.12.112.225.085.345-.09.375-.293 1.199-.334 1.363-.053.225-.172.271-.401.165-1.495-.69-2.433-2.878-2.433-4.646 0-3.776 2.748-7.252 7.92-7.252 4.158 0 7.392 2.967 7.392 6.923 0 4.135-2.607 7.462-6.233 7.462-1.214 0-2.354-.629-2.758-1.379l-.749 2.848c-.269 1.045-1.004 2.352-1.498 3.146 1.123.345 2.306.535 3.55.535 6.607 0 11.985-5.365 11.985-11.987C23.97 5.39 18.592.026 11.985.026L12.017 0z"/>
        </symbol>
    </g>
    
    <g>
        <symbol id="behanceSvg" viewBox="0 0 1024 1024">
              <path d="M634 294.3h199.5v48.4H634zM434.1 485.8c44.1-21.1 67.2-53.2 67.2-102.8 0-98.1-73-121.9-157.3-121.9H112v492.4h238.5c89.4 0 173.3-43 173.3-143 0-61.8-29.2-107.5-89.7-124.7zM220.2 345.1h101.5c39.1 0 74.2 10.9 74.2 56.3 0 41.8-27.3 58.6-66 58.6H220.2V345.1zm115.5 324.8H220.1V534.3H338c47.6 0 77.7 19.9 77.7 70.3 0 49.6-35.9 65.3-80 65.3zm575.8-89.5c0-105.5-61.7-193.4-173.3-193.4-108.5 0-182.3 81.7-182.3 188.8 0 111 69.9 187.2 182.3 187.2 85.1 0 140.2-38.3 166.7-120h-86.3c-9.4 30.5-47.6 46.5-77.3 46.5-57.4 0-87.4-33.6-87.4-90.7h256.9c.3-5.9.7-12.1.7-18.4zM653.9 537c3.1-46.9 34.4-76.2 81.2-76.2 49.2 0 73.8 28.9 78.1 76.2H653.9z"/>
        </symbol>
    </g>
    
    <g>
        <symbol id="rusFlag" viewBox="0 0 512 512">
            <path style="fill:#F5F5F5;" d="M473.655,88.276H38.345C17.167,88.276,0,105.443,0,126.621v73.471h512v-73.471C512,105.443,494.833,88.276,473.655,88.276z"/>
            <path style="fill:#FF4B55;" d="M0,385.379c0,21.177,17.167,38.345,38.345,38.345h435.31c21.177,0,38.345-17.167,38.345-38.345
                v-73.471H0V385.379z"/>
            <rect y="200.09" style="fill:#41479B;" width="512" height="111.81"/>
        </symbol>
    </g>
    
    <g>
        <symbol id="logo1" viewBox="0 0 29629.5 6539.3">
          
            <g>
            <line fill="none" fill-rule="nonzero" stroke="#DF66EC" stroke-width="400" stroke-linecap="round" stroke-linejoin="round" stroke-miterlimit="10" x1="4795.49" y1="2414.3" x2="4795.49" y2= "4186.71" />
            <line fill="none" fill-rule="nonzero" stroke="#DF66EC" stroke-width="400" stroke-linecap="round" stroke-linejoin="round" stroke-miterlimit="10" x1="10206.09" y1="2414.3" x2="10206.09" y2= "4186.71" />
            </g>
            <g>
               <path fill="#12B3EA" fill-rule="nonzero" d="M27742.04 1758.57l436.56 0c111.46,0 222.93,27.86 325.1,74.3 102.19,55.75 195.07,120.76 269.39,195.08 74.3,83.61 130.03,176.49 176.47,278.66 37.17,111.47 65.03,213.64 65.03,325.11l0 2619.41c0,102.17 27.86,176.49 92.88,222.93 65.02,55.73 139.34,74.31 222.93,74.31 74.3,0 139.33,-18.58 204.35,-74.31 55.73,-46.44 92.88,-120.76 92.88,-222.93l0 -2619.41c0,-195.06 -46.44,-380.84 -120.74,-566.62 -74.31,-176.48 -176.49,-334.4 -306.54,-464.44 -130.03,-130.04 -287.94,-241.51 -464.43,-325.1 -176.48,-74.32 -362.25,-120.76 -557.32,-120.76l-436.56 0 0 603.77z"/>
               <path fill="#12B3EA" fill-rule="nonzero" d="M26887.47 294.91l0 4783.68c0,113.51 7.86,221.78 26.39,324.81 15.08,34.74 36.94,63.91 66.49,89.24 55.75,55.73 130.05,83.59 222.93,83.59 74.32,0 139.34,-18.58 204.36,-74.3 55.74,-55.73 92.89,-139.34 92.89,-250.8l0 -29.29c-6.19,-46.19 -9.29,-93.95 -9.29,-143.25l0 -4783.68c0,-92.89 -37.15,-157.91 -102.18,-213.64 -65.02,-46.44 -130.03,-74.32 -204.35,-74.32 -83.6,0 -157.9,27.88 -213.64,65.03 -55.73,46.44 -83.6,120.75 -83.6,222.93z"/>
               <path fill="#4B92EB" fill-rule="nonzero" d="M26251.37 1730.7l-37.15 -92.89c-130.03,-204.35 -278.65,-352.96 -464.43,-455.15 -185.78,-92.88 -408.71,-148.61 -650.21,-167.18 -195.06,0 -380.84,27.86 -548.03,92.88 -176.48,74.3 -334.4,167.2 -464.43,287.94 -130.05,120.76 -241.5,269.39 -315.82,436.57 -83.59,176.51 -120.75,362.28 -120.75,566.63 0,204.36 27.87,380.85 102.17,529.45 65.02,148.63 157.91,278.68 278.66,371.56 120.76,102.16 269.38,176.48 436.57,222.92 167.2,46.44 343.69,65.02 538.75,65.02 92.88,18.58 195.06,37.15 287.94,55.73 92.88,27.88 185.78,65.03 260.08,120.76 74.32,55.73 139.34,111.47 185.78,185.78 46.44,74.3 65.02,167.2 65.02,260.08 0,111.47 -27.87,222.92 -74.31,315.8 -46.44,92.9 -102.17,176.49 -176.49,241.52 -74.3,74.31 -167.2,130.04 -260.08,167.19 -92.88,37.17 -195.06,55.74 -287.94,55.74 -185.78,-9.29 -334.4,-55.74 -464.43,-139.33 -130.05,-83.6 -232.22,-176.49 -297.25,-287.95 -74.31,-74.32 -148.61,-111.47 -222.93,-111.47 -74.3,0 -139.32,27.86 -195.06,74.3 -55.73,46.46 -83.6,111.48 -102.17,185.78 -18.58,74.32 0,148.62 46.44,213.64 55.73,92.9 130.05,185.78 222.93,260.08 92.89,83.61 195.06,148.63 306.53,204.35 111.46,55.75 222.93,102.19 343.68,130.05 120.76,37.15 241.5,55.73 362.26,55.73 185.78,9.29 371.54,-18.58 538.74,-92.88 167.2,-65.02 325.11,-157.91 455.14,-287.95 130.05,-120.75 232.22,-269.38 306.54,-436.56 74.3,-167.2 111.45,-343.69 120.74,-548.04 0,-213.64 -46.44,-399.42 -120.74,-548.03 -74.32,-148.62 -185.78,-278.67 -315.83,-380.84 -130.03,-92.9 -287.94,-167.2 -455.14,-213.64 -167.2,-46.44 -343.67,-74.3 -510.87,-83.59 -213.64,0 -399.42,-55.75 -548.04,-148.63 -148.61,-92.89 -222.93,-241.5 -213.65,-445.85 0,-213.64 83.61,-399.42 250.81,-548.06 157.9,-148.61 352.96,-213.64 575.89,-213.64 130.05,18.58 250.79,55.74 371.55,120.76 120.75,65.02 222.93,157.91 297.24,269.38 46.44,74.31 102.18,111.48 167.2,111.48 55.73,0 111.45,-9.29 167.2,-46.46 55.73,-37.15 92.88,-83.59 130.03,-148.62 27.86,-55.75 37.15,-130.05 27.86,-204.36z"/>
               <path fill="#626FEC" fill-rule="nonzero" d="M21695.46 4963.17c-222.93,0 -408.71,-74.3 -557.33,-232.21 -157.9,-148.61 -232.22,-343.68 -232.22,-566.6 0,-232.22 74.32,-427.29 232.22,-575.91 148.62,-148.61 334.4,-232.22 557.33,-232.22l585.19 0 0 -603.76 -585.19 0c-185.78,0 -371.55,37.16 -538.75,111.47 -167.19,74.3 -315.81,167.2 -445.86,287.94 -130.03,130.05 -241.51,278.67 -315.81,445.86 -74.3,176.49 -111.47,362.26 -111.47,566.62 0,204.35 37.17,390.12 111.47,557.31 74.3,176.49 167.2,325.11 297.23,455.14 130.05,130.05 278.68,222.93 445.86,297.25 167.2,74.31 352.98,111.46 557.33,111.46 204.35,0 399.42,-37.15 575.89,-111.46 167.2,-74.32 315.82,-185.77 445.85,-315.82 130.05,-130.04 222.93,-287.95 297.25,-464.44 74.31,-167.2 111.46,-352.96 111.46,-557.31l0 -1653.39c0,-195.07 -46.44,-380.83 -120.75,-557.33 -74.31,-167.2 -185.77,-315.83 -315.82,-445.86 -130.03,-130.05 -287.94,-222.93 -455.14,-297.25 -176.49,-74.3 -352.97,-111.45 -538.74,-111.45 -334.4,0 -631.63,111.45 -891.71,325.09 -74.32,55.75 -111.48,130.05 -111.48,204.36 0,74.32 18.58,148.62 65.03,204.35 37.16,65.01 92.89,111.47 167.19,130.05 74.32,27.86 148.62,9.28 232.22,-46.44 83.6,-55.75 167.2,-111.48 260.09,-148.63 83.59,-37.15 176.47,-65.01 278.66,-65.01 111.46,0 213.64,27.86 315.81,65.01 102.18,46.44 195.06,102.17 269.38,176.49 74.31,74.32 130.03,167.2 176.47,260.1 37.16,92.88 65.04,195.06 65.04,306.52l0 1653.39c0,232.22 -83.61,427.28 -241.51,585.18 -157.91,167.2 -352.97,241.5 -585.19,241.5z"/>
               <path fill="#9F66EC" fill-rule="nonzero" d="M15198.17 5260.42l0 -2795.9c0,-111.46 18.58,-213.64 65.02,-315.81 37.15,-92.89 102.18,-185.79 176.49,-260.09 74.3,-74.32 157.91,-139.34 260.08,-185.78 92.88,-37.15 204.35,-65.03 315.81,-65.03 111.47,0 222.93,27.88 325.11,74.32 102.17,55.73 195.06,120.74 269.37,195.06 74.32,74.32 130.05,167.2 167.2,260.1 37.15,102.17 65.01,204.35 65.01,297.23l0 2795.9c0,92.88 27.87,167.2 92.9,204.35 55.73,46.44 130.03,65.02 213.64,65.02 74.31,0 139.32,-18.58 204.35,-65.02 65.02,-37.15 102.17,-111.47 102.17,-204.35l0 -2795.9c0,-111.46 18.58,-213.64 74.31,-315.81 46.45,-102.18 111.47,-195.08 195.06,-269.4 74.32,-74.3 167.2,-130.03 269.37,-176.47 92.89,-37.15 195.08,-65.03 306.55,-65.03 222.93,0 417.99,83.61 585.18,241.5 157.91,167.22 241.52,362.28 241.52,585.21l0 2795.9c0,92.88 27.86,167.2 92.88,213.64 55.73,46.44 130.05,65.02 213.64,65.02 74.3,0 139.33,-18.58 204.35,-65.02 65.02,-46.44 102.17,-120.76 102.17,-213.64l0 -2795.9c0,-185.78 -46.44,-371.55 -120.75,-548.04 -74.32,-167.2 -185.77,-325.11 -315.82,-455.14 -130.03,-130.05 -287.94,-241.51 -455.14,-315.83 -176.48,-74.3 -362.25,-120.74 -548.03,-120.74 -241.52,0 -464.45,65.01 -668.8,185.76 -213.64,120.76 -371.55,287.96 -473.72,501.6 -111.47,-213.64 -278.67,-380.84 -483.03,-501.6 -204.33,-120.75 -427.26,-185.76 -659.49,-185.76 -204.34,0 -390.12,37.15 -557.32,111.45 -176.48,74.31 -325.11,176.49 -455.14,306.54 -130.05,130.03 -232.22,287.94 -306.52,455.14 -74.32,176.49 -111.47,362.27 -111.47,566.62l0 2795.9c0,92.88 27.86,157.91 92.88,204.35 55.74,46.44 130.05,65.02 204.35,65.02 74.32,0 148.62,-18.58 213.64,-65.02 65.03,-46.44 102.18,-111.47 102.18,-204.35z"/>
               <path fill="#DF66EC" fill-rule="nonzero" d="M12973.71 5279l0 -2814.48c0,-232.22 74.3,-427.28 232.22,-594.5 157.91,-167.18 352.96,-250.79 585.19,-250.79 37.15,0 83.59,9.29 148.61,18.58 130.05,18.57 222.93,0 297.25,-74.31 74.3,-74.3 111.45,-148.62 111.45,-241.5 0,-65.02 -27.86,-130.05 -65.01,-185.78 -46.44,-55.72 -111.48,-92.88 -195.07,-111.45 -55.73,-9.29 -102.18,-18.58 -139.33,-18.58l-157.9 0c-204.35,0 -399.42,46.44 -566.62,120.75 -176.49,83.59 -325.11,195.06 -455.14,325.11 -130.05,139.32 -232.22,297.23 -306.52,464.43 -74.32,176.49 -111.47,362.26 -111.47,548.04l0 2814.48c0,102.17 27.86,176.49 102.16,222.93 65.04,46.44 139.34,65.01 213.64,65.01 74.32,0 139.34,-18.57 204.36,-65.01 65.03,-46.44 102.18,-120.76 102.18,-222.93z"/>
               <path fill="#DF66EC" fill-rule="nonzero" d="M11705.96 4136.49l0 -1681.26c0,-185.77 -46.44,-371.55 -120.74,-548.04 -74.32,-167.21 -176.49,-325.13 -306.54,-455.14 -130.03,-130.05 -287.94,-241.52 -464.43,-325.11 -176.49,-74.31 -362.27,-120.75 -548.03,-120.75 -204.35,0 -390.13,46.44 -557.33,120.75 -176.48,83.59 -334.38,195.06 -464.43,325.11 -139.33,130.01 -250.79,287.93 -325.1,455.14 -74.32,176.49 -111.45,362.27 -111.45,548.04l0 1681.26c0,204.35 37.13,390.11 111.45,557.31 74.31,176.49 185.77,334.4 325.1,464.44 130.05,139.33 287.95,250.79 464.43,325.12 167.2,74.31 352.98,111.45 557.33,111.45 185.76,0 371.54,-37.14 548.03,-111.45 176.49,-74.33 334.4,-185.79 464.43,-325.12 130.05,-130.04 232.22,-287.95 306.54,-464.44 74.3,-167.2 120.74,-352.96 120.74,-557.31zm-613.06 -1681.26l0 1681.26c0,120.75 -27.86,232.22 -74.3,334.39 -46.44,102.18 -111.46,195.06 -185.78,269.36 -83.59,74.32 -176.48,139.34 -269.36,176.49 -102.19,46.44 -204.36,65.03 -297.24,65.03 -111.47,0 -213.64,-18.59 -306.53,-65.03 -102.17,-37.15 -195.07,-102.17 -269.37,-176.49 -74.31,-74.3 -139.34,-167.18 -185.78,-269.36 -55.73,-102.17 -74.3,-213.64 -74.3,-334.39l0 -1681.26c0,-222.93 74.3,-417.99 241.5,-585.21 167.2,-167.18 362.27,-250.79 594.48,-250.79 111.46,0 213.64,27.87 315.81,65.03 92.88,46.44 185.78,111.46 260.08,185.76 74.32,74.32 130.05,167.22 176.49,269.4 46.44,102.17 74.3,204.36 74.3,315.81z"/>
               <path fill="#DF66EC" fill-rule="nonzero" d="M7512.3 5078.59l0 -4783.68c0,-92.89 -37.16,-157.91 -102.19,-213.64 -65.01,-46.44 -130.03,-74.32 -204.35,-74.32 -83.59,0 -157.9,27.88 -213.64,65.03 -55.73,46.44 -83.59,120.75 -83.59,222.93l0 4783.68c0,213.64 27.86,408.71 102.16,585.19 65.04,185.78 157.92,334.4 287.96,464.44 130.04,130.04 278.66,232.21 445.86,306.53 167.2,74.31 362.25,111.46 566.6,111.46 102.19,0 176.49,-27.87 232.22,-92.88 46.46,-65.03 74.32,-139.34 74.32,-222.93 0,-74.32 -27.86,-139.34 -74.32,-195.06 -55.73,-55.73 -130.03,-92.9 -232.22,-92.9 -111.45,0 -222.93,-18.58 -315.81,-65.02 -92.88,-46.44 -176.48,-111.45 -250.79,-185.77 -74.32,-74.31 -139.33,-167.2 -176.49,-278.66 -37.15,-102.17 -55.72,-213.64 -55.72,-334.4z"/>
               <path fill="#DF66EC" fill-rule="nonzero" d="M6263.12 4136.49l0 -1681.26c0,-185.77 -46.44,-371.55 -120.74,-548.04 -74.32,-167.21 -176.49,-325.13 -306.54,-455.14 -130.03,-130.05 -287.94,-241.52 -464.43,-325.11 -176.49,-74.31 -362.27,-120.75 -548.03,-120.75 -204.35,0 -390.12,46.44 -557.32,120.75 -176.49,83.59 -334.39,195.06 -464.44,325.11 -139.33,130.01 -250.79,287.93 -325.09,455.14 -74.34,176.49 -111.48,362.27 -111.48,548.04l0 1681.26c0,204.35 37.14,390.11 111.48,557.31 74.3,176.49 185.76,334.4 325.09,464.44 130.05,139.33 287.95,250.79 464.44,325.12 167.2,74.31 352.97,111.45 557.32,111.45 185.76,0 371.54,-37.14 548.03,-111.45 176.49,-74.33 334.4,-185.79 464.43,-325.12 130.05,-130.04 232.22,-287.95 306.54,-464.44 74.3,-167.2 120.74,-352.96 120.74,-557.31zm-613.05 -1681.26l0 1681.26c0,120.75 -27.87,232.22 -74.31,334.39 -46.44,102.18 -111.46,195.06 -185.77,269.36 -83.6,74.32 -176.49,139.34 -269.37,176.49 -102.19,46.44 -204.36,65.03 -297.24,65.03 -111.47,0 -213.64,-18.59 -306.53,-65.03 -102.17,-37.15 -195.07,-102.17 -269.37,-176.49 -74.31,-74.3 -139.34,-167.18 -185.78,-269.36 -55.73,-102.17 -74.3,-213.64 -74.3,-334.39l0 -1681.26c0,-222.93 74.3,-417.99 241.5,-585.21 167.2,-167.18 362.27,-250.79 594.48,-250.79 111.46,0 213.64,27.87 315.81,65.03 92.88,46.44 185.78,111.46 260.08,185.76 74.32,74.32 130.05,167.22 176.49,269.4 46.44,102.17 74.31,204.36 74.31,315.81z"/>
               <path fill="#DF66EC" fill-rule="nonzero" d="M2840.43 4164.36c0,-83.61 -37.16,-148.63 -92.9,-195.07 -65.02,-46.44 -139.32,-74.3 -213.64,-74.3 -74.31,0 -148.61,27.86 -204.34,74.3 -65.03,46.44 -92.89,111.46 -92.89,195.07 0,111.45 -27.87,222.92 -65.02,315.8 -46.44,92.9 -102.18,176.49 -176.49,250.8 -74.3,74.32 -167.2,130.04 -260.08,167.2 -102.18,37.15 -213.64,55.73 -325.11,55.73 -222.93,0 -408.69,-74.31 -557.31,-232.22 -157.92,-148.61 -232.22,-343.67 -232.22,-566.6l0 -1709.13c0,-111.45 18.58,-213.64 55.73,-315.8 37.15,-92.9 92.88,-176.51 167.2,-250.83 74.3,-74.3 157.91,-130.03 250.79,-176.47 92.88,-37.15 204.35,-65.03 315.81,-65.03 111.47,0 213.64,27.88 315.82,65.03 102.17,46.44 195.07,102.17 269.37,176.47 74.31,74.32 130.05,157.93 176.49,250.83 37.15,92.88 65.02,195.06 65.02,306.52 0,102.17 27.86,176.48 92.89,222.93 65.02,55.72 139.32,74.3 213.64,74.3 74.31,0 148.61,-18.58 204.34,-74.3 55.74,-46.45 92.9,-120.76 92.9,-222.93 0,-195.07 -46.44,-380.84 -120.76,-548.04 -74.31,-167.2 -176.48,-315.83 -306.53,-445.86 -130.04,-130.05 -287.94,-232.23 -455.14,-306.54 -176.49,-74.3 -362.26,-111.45 -548.04,-111.45 -195.05,0 -380.83,37.15 -548.03,111.45 -167.2,74.31 -315.82,176.49 -445.85,306.54 -130.05,130.03 -232.22,278.66 -306.52,445.86 -74.32,176.48 -111.48,362.26 -111.48,557.32l0 1709.13c0,204.35 37.16,390.13 111.48,557.31 74.3,167.2 167.18,315.82 297.23,445.86 130.03,130.05 278.66,222.93 445.86,297.25 167.2,74.3 352.96,111.45 557.31,111.45 204.35,0 390.13,-37.15 566.62,-111.45 176.48,-74.32 325.09,-167.2 455.14,-297.25 130.05,-120.75 222.93,-269.37 297.23,-436.57 74.32,-167.19 111.48,-352.96 111.48,-557.31z"/>
            </g>
        </symbol>
    </g>
    
    <g>
        <symbol id="logo2" viewBox="0 0 29629.5 6539.3"> 
            
            <g>
            <line fill-rule="nonzero" stroke="#DF66EC" stroke-width="400" stroke-linecap="round" stroke-linejoin="round" stroke-miterlimit="10" x1="4795.49" y1="2414.3" x2="4795.49" y2= "4186.71" />
            <line fill-rule="nonzero" stroke="#DF66EC" stroke-width="400" stroke-linecap="round" stroke-linejoin="round" stroke-miterlimit="10" x1="10206.09" y1="2414.3" x2="10206.09" y2= "4186.71" />
            </g>
            <path fill="#626FEC" fill-rule="nonzero" d="M29014.59 3187.82l0 2063.31c0,102.17 27.86,176.49 92.88,222.93 65.01,55.73 139.33,74.31 222.93,74.31 74.3,0 139.33,-18.58 204.35,-74.31 55.73,-46.44 92.88,-120.76 92.88,-222.93l0 -2052.9c-27.48,0.17 -54.79,1.04 -82.3,1.04 -177.84,0 -354.59,-4.54 -530.74,-11.45z"/>
            <path fill="#626FEC" fill-rule="nonzero" d="M26887.47 2933.7l0 2144.89c0,113.51 7.86,221.78 26.39,324.81 15.08,34.74 36.94,63.91 66.49,89.24 55.75,55.73 130.05,83.59 222.93,83.59 74.32,0 139.34,-18.58 204.35,-74.3 55.75,-55.73 92.9,-139.34 92.9,-250.8l0 -29.29c-6.19,-46.19 -9.29,-93.95 -9.29,-143.25l0 -2037.07c-202.79,-31.43 -404.1,-67.39 -603.77,-107.82z"/>
            <path fill="#DF66EC" fill-rule="nonzero" d="M23842.81 5030.78c43.32,55.98 93.78,109.22 151.41,155.32 92.9,83.61 195.07,148.63 306.54,204.35 111.46,55.75 222.93,102.19 343.67,130.05 120.76,37.15 241.51,55.73 362.27,55.73 164.36,8.21 328.69,-12.67 480.18,-69.02 -557.96,-134.81 -1106.64,-293.35 -1644.07,-476.43z"/>
            <path fill="#DF66EC" fill-rule="nonzero" d="M21695.46 4963.17c-222.93,0 -408.71,-74.3 -557.33,-232.21 -157.9,-148.61 -232.22,-343.68 -232.22,-566.6 0,-140.43 27.19,-267.25 83.59,-378.45 -180.91,-97.47 -359.91,-197.97 -537.23,-301.1 -20.92,36.64 -40.05,74.29 -57.23,112.93 -74.31,176.49 -111.47,362.26 -111.47,566.62 0,204.35 37.16,390.12 111.47,557.31 74.3,176.49 167.2,325.11 297.23,455.14 130.05,130.05 278.67,222.93 445.86,297.25 167.2,74.31 352.97,111.46 557.33,111.46 204.35,0 399.41,-37.15 575.88,-111.46 167.21,-74.32 315.83,-185.77 445.86,-315.82 123.03,-123.02 212.8,-270.98 285.04,-436.02 -187.21,-73.93 -372.48,-151.71 -556.69,-231.43 -39.95,84.2 -95.19,161.16 -164.9,230.88 -157.91,167.2 -352.98,241.5 -585.19,241.5z"/>
            <path fill="#DF66EC" fill-rule="nonzero" d="M15198.17 5260.42l0 -2795.9c0,-111.46 18.58,-213.64 65.02,-315.81 37.15,-92.89 102.18,-185.79 176.48,-260.09 74.31,-74.32 157.92,-139.34 260.09,-185.78 92.88,-37.15 204.35,-65.03 315.8,-65.03 111.48,0 222.93,27.88 325.12,74.32 102.16,55.73 195.06,120.74 269.37,195.06 74.31,74.32 130.04,167.2 167.2,260.1 37.15,102.17 65.01,204.35 65.01,297.23l0 2795.9c0,92.88 27.87,167.2 92.9,204.35 55.73,46.44 130.03,65.02 213.64,65.02 74.3,0 139.32,-18.58 204.35,-65.02 65.02,-37.15 102.17,-111.47 102.17,-204.35l0 -2795.9c0,-111.46 18.57,-213.64 74.3,-315.81 46.46,-102.18 111.47,-195.08 195.07,-269.4 59.23,-59.21 130.26,-106.63 208.36,-146.95 -160.33,-132.06 -317.75,-267.45 -473.57,-404.62 -128.48,104.78 -228.95,232.91 -301.39,384.39 -111.48,-213.64 -278.68,-380.84 -483.03,-501.6 -204.34,-120.75 -427.26,-185.76 -659.5,-185.76 -204.33,0 -390.11,37.15 -557.31,111.45 -176.49,74.31 -325.11,176.49 -455.14,306.54 -130.05,130.03 -232.22,287.94 -306.52,455.14 -74.32,176.49 -111.48,362.27 -111.48,566.62l0 2795.9c0,92.88 27.87,157.91 92.88,204.35 55.75,46.44 130.05,65.02 204.36,65.02 74.32,0 148.62,-18.58 213.64,-65.02 65.03,-46.44 102.18,-111.47 102.18,-204.35zm3929.13 -2622.34l0 2622.34c0,92.88 27.87,167.2 92.88,213.64 55.73,46.44 130.05,65.02 213.64,65.02 74.31,0 139.34,-18.58 204.36,-65.02 65.01,-46.44 102.17,-120.76 102.17,-213.64l0 -2210.2c-207.35,-133.2 -411.33,-271.16 -613.05,-412.14z"/>
            <path fill="#DF66EC" fill-rule="nonzero" d="M12973.71 5279l0 -2814.48c0,-232.22 74.3,-427.28 232.21,-594.5 157.92,-167.18 352.96,-250.79 585.2,-250.79 37.15,0 83.59,9.29 148.61,18.58 130.04,18.57 222.92,0 297.24,-74.31 74.31,-74.3 111.46,-148.62 111.46,-241.5 0,-65.02 -27.86,-130.05 -65.02,-185.78 -46.44,-55.73 -111.47,-92.88 -195.06,-111.45 -55.73,-9.29 -102.18,-18.58 -139.34,-18.58l-157.89 0c-204.36,0 -399.42,46.44 -566.62,120.75 -176.49,83.59 -325.11,195.06 -455.14,325.11 -130.05,139.32 -232.22,297.23 -306.53,464.43 -74.32,176.49 -111.47,362.26 -111.47,548.04l0 2814.48c0,102.17 27.87,176.49 102.17,222.93 65.03,46.44 139.34,65.01 213.64,65.01 74.32,0 139.34,-18.57 204.35,-65.01 65.04,-46.44 102.19,-120.76 102.19,-222.93z"/>
            <path fill="#DF66EC" fill-rule="nonzero" d="M11705.96 4136.49l0 -1681.26c0,-185.77 -46.44,-371.55 -120.75,-548.04 -74.32,-167.21 -176.48,-325.13 -306.53,-455.14 -130.03,-130.05 -287.95,-241.52 -464.43,-325.11 -176.49,-74.31 -362.27,-120.75 -548.03,-120.75 -204.35,0 -390.13,46.44 -557.33,120.75 -176.49,83.59 -334.38,195.06 -464.43,325.11 -139.34,130.01 -250.79,287.93 -325.1,455.14 -74.32,176.49 -111.45,362.27 -111.45,548.04l0 1681.26c0,204.35 37.13,390.11 111.45,557.31 74.31,176.49 185.76,334.4 325.1,464.44 130.05,139.33 287.94,250.79 464.43,325.12 167.2,74.31 352.98,111.45 557.33,111.45 185.76,0 371.54,-37.14 548.03,-111.45 176.48,-74.33 334.4,-185.79 464.43,-325.12 130.05,-130.04 232.21,-287.95 306.53,-464.44 74.31,-167.2 120.75,-352.96 120.75,-557.31zm-613.06 -1681.26l0 1681.26c0,120.75 -27.86,232.22 -74.3,334.39 -46.44,102.18 -111.46,195.06 -185.78,269.36 -83.59,74.32 -176.49,139.34 -269.37,176.49 -102.18,46.44 -204.35,65.03 -297.23,65.03 -111.47,0 -213.64,-18.59 -306.54,-65.03 -102.16,-37.15 -195.06,-102.17 -269.36,-176.49 -74.31,-74.3 -139.34,-167.18 -185.78,-269.36 -55.73,-102.17 -74.31,-213.64 -74.31,-334.39l0 -1681.26c0,-222.93 74.31,-417.99 241.51,-585.21 167.2,-167.18 362.26,-250.79 594.48,-250.79 111.46,0 213.64,27.87 315.81,65.03 92.88,46.44 185.77,111.46 260.08,185.76 74.32,74.32 130.05,167.22 176.49,269.4 46.44,102.17 74.3,204.36 74.3,315.81z"/>
            <path fill="#DF66EC" fill-rule="nonzero" d="M7512.29 5078.59l0 -4783.68c0,-92.9 -37.15,-157.91 -102.18,-213.64 -65.02,-46.44 -130.03,-74.32 -204.35,-74.32 -83.6,0 -157.9,27.88 -213.64,65.03 -55.73,46.44 -83.6,120.75 -83.6,222.93l0 4783.68c0,213.64 27.87,408.7 102.17,585.19 65.03,185.78 157.91,334.4 287.96,464.44 130.03,130.04 278.66,232.21 445.86,306.53 167.2,74.31 362.25,111.46 566.6,111.46 102.18,0 176.49,-27.87 232.22,-92.88 46.45,-65.03 74.32,-139.34 74.32,-222.93 0,-74.32 -27.87,-139.34 -74.32,-195.06 -55.73,-55.73 -130.04,-92.9 -232.22,-92.9 -111.46,0 -222.93,-18.58 -315.81,-65.02 -92.88,-46.44 -176.49,-111.45 -250.79,-185.77 -74.32,-74.31 -139.34,-167.2 -176.49,-278.66 -37.15,-102.17 -55.73,-213.64 -55.73,-334.4z"/>
            <path fill="#DF66EC" fill-rule="nonzero" d="M6263.12 4136.49l0 -1681.26c0,-185.77 -46.44,-371.55 -120.74,-548.04 -74.32,-167.21 -176.49,-325.13 -306.54,-455.14 -130.03,-130.05 -287.95,-241.52 -464.43,-325.11 -176.49,-74.31 -362.27,-120.75 -548.03,-120.75 -204.35,0 -390.13,46.44 -557.33,120.75 -176.49,83.59 -334.38,195.06 -464.43,325.11 -139.34,130.01 -250.79,287.93 -325.1,455.14 -74.33,176.49 -111.47,362.27 -111.47,548.04l0 1681.26c0,204.35 37.14,390.11 111.47,557.31 74.31,176.49 185.76,334.4 325.1,464.44 130.05,139.33 287.94,250.79 464.43,325.12 167.2,74.31 352.98,111.45 557.33,111.45 185.76,0 371.54,-37.14 548.03,-111.45 176.48,-74.33 334.4,-185.79 464.43,-325.12 130.05,-130.04 232.22,-287.95 306.54,-464.44 74.3,-167.2 120.74,-352.96 120.74,-557.31zm-613.06 -1681.26l0 1681.26c0,120.75 -27.86,232.22 -74.3,334.39 -46.44,102.18 -111.46,195.06 -185.78,269.36 -83.59,74.32 -176.49,139.34 -269.37,176.49 -102.18,46.44 -204.35,65.03 -297.23,65.03 -111.47,0 -213.64,-18.59 -306.54,-65.03 -102.16,-37.15 -195.06,-102.17 -269.36,-176.49 -74.31,-74.3 -139.34,-167.18 -185.78,-269.36 -55.73,-102.17 -74.3,-213.64 -74.3,-334.39l0 -1681.26c0,-222.93 74.3,-417.99 241.5,-585.21 167.2,-167.18 362.26,-250.79 594.48,-250.79 111.46,0 213.64,27.87 315.81,65.03 92.88,46.44 185.78,111.46 260.08,185.76 74.32,74.32 130.05,167.22 176.49,269.4 46.44,102.17 74.3,204.36 74.3,315.81z"/>
            <path fill="#DF66EC" fill-rule="nonzero" d="M2840.42 4164.36c0,-83.61 -37.15,-148.63 -92.89,-195.07 -65.02,-46.44 -139.32,-74.3 -213.64,-74.3 -74.31,0 -148.61,27.86 -204.34,74.3 -65.03,46.44 -92.9,111.46 -92.9,195.07 0,111.45 -27.86,222.92 -65.01,315.8 -46.44,92.9 -102.19,176.49 -176.49,250.8 -74.31,74.32 -167.2,130.04 -260.08,167.2 -102.19,37.15 -213.64,55.72 -325.11,55.72 -222.93,0 -408.69,-74.3 -557.32,-232.21 -157.91,-148.61 -232.21,-343.67 -232.21,-566.6l0 -1709.13c0,-111.45 18.57,-213.64 55.72,-315.8 37.16,-92.9 92.89,-176.51 167.2,-250.83 74.31,-74.3 157.92,-130.03 250.8,-176.47 92.88,-37.15 204.35,-65.03 315.81,-65.03 111.47,0 213.64,27.88 315.82,65.03 102.17,46.44 195.06,102.17 269.37,176.47 74.3,74.32 130.05,157.93 176.49,250.83 37.15,92.88 65.01,195.06 65.01,306.52 0,102.16 27.87,176.48 92.9,222.92 65.02,55.73 139.32,74.31 213.64,74.31 74.3,0 148.61,-18.58 204.34,-74.31 55.74,-46.44 92.89,-120.76 92.89,-222.92 0,-195.07 -46.44,-380.84 -120.76,-548.04 -74.3,-167.2 -176.47,-315.83 -306.52,-445.86 -130.05,-130.05 -287.94,-232.23 -455.14,-306.54 -176.49,-74.3 -362.27,-111.45 -548.04,-111.45 -195.05,0 -380.83,37.15 -548.03,111.45 -167.2,74.31 -315.82,176.49 -445.86,306.54 -130.04,130.03 -232.21,278.66 -306.52,445.86 -74.32,176.48 -111.47,362.26 -111.47,557.32l0 1709.13c0,204.35 37.15,390.13 111.47,557.31 74.31,167.2 167.19,315.82 297.24,445.86 130.03,130.05 278.65,222.93 445.85,297.25 167.2,74.3 352.96,111.45 557.32,111.45 204.35,0 390.12,-37.15 566.61,-111.45 176.49,-74.32 325.1,-167.2 455.15,-297.25 130.05,-120.75 222.93,-269.37 297.23,-436.57 74.32,-167.19 111.47,-352.96 111.47,-557.31z"/>
            <path fill="#626FEC" fill-rule="nonzero" d="M20989.5 3785.91c36.88,-72.69 86.21,-138.71 148.63,-197.46 148.62,-148.61 334.4,-232.22 557.33,-232.22l585.19 0 0 -603.76 -585.19 0c-185.78,0 -371.56,37.16 -538.76,111.47 -167.18,74.3 -315.81,167.2 -445.85,287.94 -99.99,99.99 -189,210.97 -258.58,332.93 177.32,103.13 356.32,203.63 537.23,301.1zm2012.74 936.31c4.13,-9.43 8.2,-18.9 12.21,-28.42 74.3,-167.2 111.46,-352.96 111.46,-557.31l0 -1653.39c0,-195.07 -46.44,-380.83 -120.75,-557.33 -74.32,-167.2 -185.77,-315.83 -315.82,-445.86 -130.04,-130.05 -287.95,-222.93 -455.15,-297.25 -176.49,-74.3 -352.96,-111.45 -538.73,-111.45 -334.4,0 -631.64,111.45 -891.72,325.09 -74.32,55.75 -111.47,130.05 -111.47,204.36 0,74.32 18.58,148.62 65.03,204.35 37.15,65.01 92.88,111.47 167.19,130.05 74.32,27.86 148.62,9.28 232.21,-46.44 83.61,-55.75 167.2,-111.48 260.1,-148.63 83.59,-37.15 176.47,-65.01 278.66,-65.01 111.45,0 213.64,27.86 315.8,65.01 102.19,46.44 195.07,102.17 269.39,176.49 74.3,74.32 130.03,167.2 176.47,260.1 37.15,92.88 65.03,195.06 65.03,306.52l0 1653.39c0,129.68 -26.08,247.78 -76.6,354.3 184.21,79.72 369.48,157.5 556.69,231.43z"/>
            <path fill="#12B3EA" d="M23751.83 1876.12c183.76,88.93 370.03,173.48 558.39,254.09 41,-106.89 109.06,-203.49 204.18,-288.05 157.9,-148.61 352.96,-213.64 575.89,-213.64 130.05,18.58 250.79,55.74 371.55,120.76 120.75,65.02 222.93,157.91 297.23,269.38 46.44,74.31 102.19,111.48 167.2,111.48 55.73,0 111.46,-9.29 167.2,-46.46 55.73,-37.15 92.88,-83.59 130.04,-148.62 27.86,-55.75 37.15,-130.05 27.86,-204.36l-37.15 -92.89c-130.03,-204.35 -278.66,-352.96 -464.43,-455.15 -185.78,-92.88 -408.71,-148.61 -650.21,-167.18 -195.07,0 -380.84,27.86 -548.03,92.88 -176.49,74.3 -334.4,167.2 -464.43,287.94 -130.05,120.76 -241.51,269.39 -315.83,436.57 -6.8,14.36 -13.26,28.77 -19.46,43.25z"/>
            <path fill="#626FEC" d="M17459.48 1327.74c155.82,137.17 313.24,272.56 473.57,404.62 19.91,-10.27 40.25,-20.09 61.01,-29.52 92.89,-37.15 195.08,-65.03 306.55,-65.03 222.93,0 417.99,83.61 585.17,241.5 157.92,167.22 241.52,362.28 241.52,585.21l0 173.56c201.72,140.98 405.7,278.94 613.05,412.14l0 -585.7c0,-185.78 -46.44,-371.55 -120.75,-548.04 -74.32,-167.2 -185.78,-325.11 -315.82,-455.14 -130.04,-130.05 -287.95,-241.51 -455.15,-315.83 -176.47,-74.3 -362.25,-120.74 -548.02,-120.74 -241.52,0 -464.45,65.01 -668.8,185.76 -62.16,35.14 -119.6,74.21 -172.33,117.21z"/>
            <path fill="#626FEC" d="M23842.81 5030.78c537.43,183.08 1086.11,341.62 1644.07,476.43 19.74,-7.36 39.27,-15.29 58.55,-23.86 167.2,-65.02 325.12,-157.91 455.15,-287.95 130.05,-120.76 232.21,-269.38 306.53,-436.56 74.31,-167.2 111.46,-343.69 120.75,-548.04 0,-213.64 -46.44,-399.42 -120.75,-548.03 -74.32,-148.62 -185.77,-278.67 -315.82,-380.84 -130.03,-92.9 -287.94,-167.2 -455.14,-213.64 -167.2,-46.44 -343.68,-74.3 -510.88,-83.59 -213.64,0 -399.41,-55.75 -548.04,-148.63 -148.61,-92.89 -222.93,-241.5 -213.64,-445.85 0,-92.1 15.55,-179.01 46.63,-260.01 -188.36,-80.61 -374.63,-165.17 -558.39,-254.09 -69.92,163.59 -101.28,335.64 -101.28,523.38 0,204.36 27.86,380.84 102.17,529.45 65.01,148.63 157.91,278.68 278.66,371.56 120.76,102.16 269.38,176.48 436.56,222.92 167.2,46.44 343.69,65.02 538.76,65.02 92.88,18.58 195.06,37.15 287.94,55.73 92.88,27.88 185.78,65.03 260.08,120.76 74.32,55.73 139.34,111.47 185.78,185.77 46.44,74.31 65.01,167.21 65.01,260.09 0,111.47 -27.86,222.92 -74.3,315.8 -46.44,92.9 -102.17,176.49 -176.49,241.52 -74.3,74.31 -167.2,130.04 -260.08,167.19 -92.88,37.17 -195.06,55.74 -287.94,55.74 -185.78,-9.29 -334.4,-55.74 -464.44,-139.33 -130.04,-83.6 -232.21,-176.49 -297.24,-287.95 -74.31,-74.32 -148.61,-111.47 -222.93,-111.47 -74.31,0 -139.32,27.86 -195.07,74.3 -55.73,46.46 -83.59,111.48 -102.17,185.78 -18.57,74.32 0,148.62 46.44,213.64 21.16,35.26 45,70.53 71.52,104.76z"/>
            <path fill="#12B3EA" d="M26887.47 2933.7c199.67,40.43 400.98,76.39 603.77,107.82l0 -2746.61c0,-92.9 -37.15,-157.91 -102.18,-213.64 -65.02,-46.44 -130.04,-74.32 -204.36,-74.32 -83.59,0 -157.89,27.88 -213.64,65.03 -55.72,46.44 -83.59,120.75 -83.59,222.93l0 2638.79z"/>
            <path fill="#12B3EA" d="M29545.33 3199.27c27.51,0 54.82,-0.87 82.3,-1.04l0 -566.51c0,-195.06 -46.44,-380.84 -120.75,-566.62 -74.3,-176.48 -176.48,-334.4 -306.53,-464.44 -130.04,-130.04 -287.95,-241.51 -464.44,-325.1 -176.47,-74.32 -362.24,-120.76 -557.31,-120.76l-436.57 0 0 603.77 436.57 0c111.46,0 222.93,27.86 325.1,74.3 102.18,55.75 195.06,120.76 269.38,195.08 74.31,83.61 130.03,176.49 176.48,278.66 37.16,111.47 65.03,213.64 65.03,325.11l0 556.1c176.15,6.91 352.9,11.45 530.74,11.45z"/>     
        </symbol>
    </g>
    
    <g>
        <symbol id="globe" viewBox="0 0 24 24">
            
            <g id="Product-Icons" stroke="none" stroke-width="1" fill-rule="evenodd">
                <g id="ic_fluent_globe_24_regular" fill="var(--textColor)" fill-rule="nonzero">
                <path d="M12.0000002,1.99896738 C17.523704,1.99896738 22.0015507,6.47681407 22.0015507,12.0005179 C22.0015507,17.5242217 17.523704,22.0020684 12.0000002,22.0020684 C6.47629639,22.0020684 1.99844971,17.5242217 1.99844971,12.0005179 C1.99844971,6.47681407 6.47629639,1.99896738 12.0000002,1.99896738 Z M14.9389045,16.5002571 L9.06109593,16.5002571 C9.71313678,18.9143799 10.8464883,20.5020684 12.0000002,20.5020684 C13.1535121,20.5020684 14.2868636,18.9143799 14.9389045,16.5002571 Z M7.50830976,16.5008106 L4.78582644,16.5006803 C5.744167,18.0337454 7.17761035,19.2393418 8.87999355,19.9113065 C8.35771536,19.0914835 7.92672586,18.0651949 7.60972411,16.8958162 L7.50830976,16.5008106 L7.50830976,16.5008106 Z M19.214174,16.5006803 L16.4916907,16.5008106 C16.167923,17.8345819 15.700316,19.000392 15.1189501,19.9113639 C16.7159251,19.2813431 18.0755983,18.1823607 19.0289676,16.7842422 L19.214174,16.5006803 L19.214174,16.5006803 Z M7.09342418,9.9998686 L3.73581796,9.9998686 L3.73581796,9.9998686 L3.73106043,10.0170734 C3.57897914,10.6534279 3.49844971,11.3175685 3.49844971,12.0005179 C3.49844971,13.0566718 3.69103899,14.0678442 4.04301473,15.000832 L7.21617552,15.0004667 C7.07387589,14.0513637 6.99844971,13.0431468 6.99844971,12.0005179 C6.99844971,11.3165055 7.03091285,10.6473039 7.09342418,9.9998686 Z M15.3969276,9.99993255 L8.60307281,9.99993255 C8.53505119,10.640197 8.49844971,11.3099099 8.49844971,12.0005179 C8.49844971,13.0600224 8.5845969,14.070347 8.73818201,15.000607 L15.2618184,15.000607 C15.4154035,14.070347 15.5015507,13.0600224 15.5015507,12.0005179 C15.5015507,11.3099099 15.4649492,10.640197 15.3969276,9.99993255 Z M20.2646076,9.999033 L16.9065762,9.99988793 C16.9690876,10.6473039 17.0015507,11.3165055 17.0015507,12.0005179 C17.0015507,13.0431468 16.9261245,14.0513637 16.7838249,15.0004667 L19.9569857,15.000832 C20.3089614,14.0678442 20.5015507,13.0566718 20.5015507,12.0005179 C20.5015507,11.3111121 20.4194915,10.6408723 20.2646076,9.999033 Z M8.88105029,4.0896719 L8.85814489,4.09838857 C6.81083065,4.91309834 5.15481653,6.500408 4.25014894,8.50027116 L7.29826946,8.50063757 C7.61162388,6.74784533 8.15846945,5.22192073 8.88105029,4.0896719 Z M12.0000002,3.49896738 L11.8843481,3.50426666 C10.6189068,3.62002448 9.39642826,5.62198962 8.82871306,8.50021862 L15.1712874,8.50021862 C14.6051632,5.63005613 13.3879407,3.63125276 12.1262908,3.50528435 L12.0000002,3.49896738 Z M15.1200069,4.08972931 L15.2268438,4.26382329 C15.8960528,5.37628985 16.4041675,6.83617446 16.701731,8.50063757 L19.7498515,8.50027116 C18.8852005,6.58886886 17.3342021,5.05432991 15.4112068,4.21100469 L15.1200069,4.08972931 Z"></path>
                </g>
            </g>
            
        </symbol> 
    </g>
    
    <g>
        <symbol id="line" viewBox="0 0 27.243 2.008">
            <rect width="27.5" height="5" rx="2.5"/>
        </symbol>
    </g>
    
    <g>
        <symbol id='unlocked' viewBox="0 0 470 470">
            <rect x="137.5" y="190" width="315" height="280"/>
            <path d="M192.5,102.5V160h30v-57.5C222.5,45.981,176.519,0,120,0S17.5,45.981,17.5,102.5V190h30v-87.5
                C47.5,62.523,80.023,30,120,30S192.5,62.523,192.5,102.5z"/>
        </symbol>
    </g>
    
    <g>
        <symbol id='locked' viewBox="0 0 470 470">
            	<path d="M162.5,102.5c0-39.977,32.523-72.5,72.5-72.5s72.5,32.523,72.5,72.5V160h30v-57.5C337.5,45.981,291.519,0,235,0
		      S132.5,45.981,132.5,102.5V160h30V102.5z"/>
	           <rect x="77.5" y="190" width="315" height="280"/>
        </symbol>
    </g>
    
    <g>
        <symbol id='ralClassic' viewBox="0 0 1500 1200" >
            <path class="fil0" d="M4832 0l1139.99 0c99,0 180,81 180,180l0 840c0,99 -81,180 -180,180l-1139.99 0c-99,0 -180,-81 -180,-180l0 -840c0,-99 81,-180 180,-180zm114.85 204.65l910 0c46.75,0 85,38.25 85,85l0 360c0,46.75 -38.25,85 -85,85l-910 0c-46.75,0 -85,-38.25 -85,-85l0 -360c0,-46.75 38.25,-85 85,-85zm0 30l910 0c30.25,0 55,24.75 55,55l0 360c0,30.25 -24.75,55 -55,55l-910 0c-30.25,0 -55,-24.75 -55,-55l0 -360c0,-30.25 24.75,-55 55,-55zm12.61 766.88c-14.09,0 -26.92,-2.36 -38.5,-7.08 -11.57,-4.72 -21.51,-11.61 -29.8,-20.66 -8.3,-9.05 -14.72,-20.22 -19.25,-33.5 -4.54,-13.27 -6.8,-28.47 -6.8,-45.59 0,-17.11 2.56,-32.31 7.67,-45.59 5.11,-13.28 12.01,-24.45 20.69,-33.5 8.68,-9.05 18.81,-15.93 30.39,-20.66 11.58,-4.72 23.92,-7.08 37.05,-7.08 8.29,0 15.77,0.59 22.42,1.77 6.66,1.18 12.45,2.56 17.37,4.13 4.92,1.58 8.92,3.15 12.01,4.73 3.09,1.57 5.21,2.75 6.37,3.54l-8.11 23.61c-1.73,-1.19 -4.24,-2.46 -7.52,-3.84 -3.28,-1.38 -7,-2.76 -11.14,-4.13 -4.15,-1.38 -8.69,-2.51 -13.61,-3.4 -4.92,-0.88 -9.89,-1.32 -14.9,-1.32 -10.61,0 -20.16,1.86 -28.65,5.6 -8.49,3.74 -15.73,9.15 -21.71,16.23 -5.98,7.09 -10.56,15.69 -13.75,25.83 -3.18,10.13 -4.77,21.49 -4.77,34.08 0,12.2 1.4,23.31 4.19,33.35 2.8,10.03 7,18.64 12.59,25.82 5.6,7.18 12.59,12.74 20.99,16.67 8.39,3.94 18.18,5.91 29.37,5.91 12.93,0 23.64,-1.38 32.13,-4.14 8.49,-2.75 14.85,-5.21 19.1,-7.37l7.23 23.6c-1.35,0.99 -3.76,2.22 -7.23,3.69 -3.47,1.48 -7.82,2.91 -13.03,4.28 -5.2,1.38 -11.28,2.56 -18.23,3.54 -6.94,0.99 -14.47,1.48 -22.57,1.48zm213.87 -29.22l0 24.79 -120.68 0 0 -204.51 28.07 0 0 179.72 92.61 0zm171.63 24.79c-3.28,-8.85 -6.37,-17.56 -9.26,-26.11 -2.9,-8.56 -5.89,-17.27 -8.98,-26.12l-90.87 0 -18.23 52.23 -29.24 0c7.72,-21.64 14.96,-41.66 21.71,-60.05 6.75,-18.4 13.36,-35.86 19.82,-52.38 6.47,-16.53 12.88,-32.32 19.25,-47.37 6.37,-15.05 13.03,-29.95 19.97,-44.71l25.76 0c6.94,14.76 13.6,29.66 19.97,44.71 6.37,15.05 12.78,30.84 19.24,47.37 6.47,16.52 13.08,33.98 19.83,52.38 6.75,18.39 13.99,38.41 21.71,60.05l-30.68 0zm-26.34 -75.84c-6.17,-17.12 -12.3,-33.69 -18.38,-49.73 -6.08,-16.03 -12.39,-31.42 -18.95,-46.18 -6.76,14.76 -13.17,30.15 -19.25,46.18 -6.08,16.04 -12.11,32.61 -18.09,49.73l74.67 0zm135.45 55.48c29.32,0 43.99,-10.23 43.99,-30.69 0,-6.3 -1.3,-11.66 -3.91,-16.08 -2.6,-4.43 -6.12,-8.27 -10.56,-11.51 -4.44,-3.25 -9.51,-6.05 -15.2,-8.41 -5.69,-2.36 -11.72,-4.73 -18.09,-7.09 -7.33,-2.55 -14.27,-5.46 -20.83,-8.7 -6.56,-3.25 -12.26,-7.08 -17.08,-11.51 -4.82,-4.43 -8.63,-9.69 -11.43,-15.79 -2.8,-6.1 -4.2,-13.48 -4.2,-22.13 0,-17.91 5.98,-31.87 17.95,-41.91 11.96,-10.03 28.46,-15.05 49.49,-15.05 12.15,0 23.2,1.33 33.13,3.99 9.94,2.65 17.22,5.55 21.86,8.7l-8.98 23.31c-4.05,-2.55 -10.08,-5.06 -18.09,-7.52 -8,-2.46 -17.31,-3.69 -27.92,-3.69 -5.41,0 -10.42,0.59 -15.05,1.77 -4.63,1.18 -8.69,2.95 -12.16,5.31 -3.47,2.36 -6.22,5.36 -8.25,9 -2.02,3.64 -3.04,7.92 -3.04,12.84 0,5.51 1.06,10.13 3.19,13.87 2.12,3.74 5.11,7.03 8.97,9.89 3.86,2.85 8.34,5.46 13.46,7.82 5.11,2.36 10.75,4.72 16.93,7.08 8.68,3.54 16.64,7.08 23.87,10.62 7.24,3.55 13.51,7.78 18.82,12.69 5.3,4.92 9.4,10.78 12.3,17.56 2.89,6.79 4.34,15 4.34,24.64 0,17.91 -6.42,31.68 -19.25,41.32 -12.83,9.64 -30.92,14.46 -54.26,14.46 -7.91,0 -15.2,-0.54 -21.85,-1.62 -6.66,-1.08 -12.59,-2.36 -17.8,-3.84 -5.21,-1.48 -9.7,-3.05 -13.46,-4.72 -3.76,-1.67 -6.7,-3.1 -8.83,-4.28l8.39 -23.61c4.44,2.56 11.2,5.41 20.26,8.56 9.07,3.15 20.17,4.72 33.29,4.72zm153.96 0c29.33,0 43.99,-10.23 43.99,-30.69 0,-6.3 -1.3,-11.66 -3.9,-16.08 -2.61,-4.43 -6.13,-8.27 -10.57,-11.51 -4.43,-3.25 -9.5,-6.05 -15.19,-8.41 -5.69,-2.36 -11.72,-4.73 -18.09,-7.09 -7.33,-2.55 -14.28,-5.46 -20.84,-8.7 -6.56,-3.25 -12.25,-7.08 -17.07,-11.51 -4.82,-4.43 -8.64,-9.69 -11.43,-15.79 -2.8,-6.1 -4.2,-13.48 -4.2,-22.13 0,-17.91 5.98,-31.87 17.94,-41.91 11.97,-10.03 28.46,-15.05 49.49,-15.05 12.16,0 23.21,1.33 33.14,3.99 9.94,2.65 17.22,5.55 21.85,8.7l-8.97 23.31c-4.05,-2.55 -10.08,-5.06 -18.09,-7.52 -8,-2.46 -17.31,-3.69 -27.93,-3.69 -5.4,0 -10.41,0.59 -15.05,1.77 -4.63,1.18 -8.68,2.95 -12.15,5.31 -3.47,2.36 -6.22,5.36 -8.25,9 -2.02,3.64 -3.04,7.92 -3.04,12.84 0,5.51 1.06,10.13 3.19,13.87 2.12,3.74 5.11,7.03 8.97,9.89 3.86,2.85 8.34,5.46 13.46,7.82 5.11,2.36 10.75,4.72 16.93,7.08 8.68,3.54 16.64,7.08 23.87,10.62 7.24,3.55 13.51,7.78 18.81,12.69 5.31,4.92 9.41,10.78 12.3,17.56 2.9,6.79 4.35,15 4.35,24.64 0,17.91 -6.42,31.68 -19.25,41.32 -12.83,9.64 -30.92,14.46 -54.27,14.46 -7.91,0 -15.19,-0.54 -21.85,-1.62 -6.65,-1.08 -12.59,-2.36 -17.79,-3.84 -5.21,-1.48 -9.7,-3.05 -13.46,-4.72 -3.77,-1.67 -6.71,-3.1 -8.83,-4.28l8.39 -23.61c4.44,2.56 11.19,5.41 20.26,8.56 9.07,3.15 20.16,4.72 33.28,4.72zm107.38 -184.15l28.07 0 0 204.51 -28.07 0 0 -204.51zm164.1 208.94c-14.09,0 -26.92,-2.36 -38.5,-7.08 -11.57,-4.72 -21.51,-11.61 -29.81,-20.66 -8.29,-9.05 -14.71,-20.22 -19.24,-33.5 -4.54,-13.27 -6.8,-28.47 -6.8,-45.59 0,-17.11 2.55,-32.31 7.67,-45.59 5.11,-13.28 12.01,-24.45 20.69,-33.5 8.68,-9.05 18.81,-15.93 30.39,-20.66 11.57,-4.72 23.92,-7.08 37.04,-7.08 8.3,0 15.78,0.59 22.43,1.77 6.66,1.18 12.45,2.56 17.37,4.13 4.92,1.58 8.92,3.15 12.01,4.73 3.08,1.57 5.21,2.75 6.36,3.54l-8.1 23.61c-1.74,-1.19 -4.24,-2.46 -7.52,-3.84 -3.28,-1.38 -7,-2.76 -11.15,-4.13 -4.14,-1.38 -8.68,-2.51 -13.6,-3.4 -4.92,-0.88 -9.89,-1.32 -14.9,-1.32 -10.62,0 -20.17,1.86 -28.66,5.6 -8.49,3.74 -15.72,9.15 -21.7,16.23 -5.98,7.09 -10.57,15.69 -13.75,25.83 -3.18,10.13 -4.77,21.49 -4.77,34.08 0,12.2 1.39,23.31 4.19,33.35 2.8,10.03 7,18.64 12.59,25.82 5.6,7.18 12.59,12.74 20.98,16.67 8.4,3.94 18.19,5.91 29.38,5.91 12.93,0 23.64,-1.38 32.12,-4.14 8.5,-2.75 14.86,-5.21 19.11,-7.37l7.23 23.6c-1.35,0.99 -3.76,2.22 -7.23,3.69 -3.48,1.48 -7.82,2.91 -13.03,4.28 -5.21,1.38 -11.28,2.56 -18.23,3.54 -6.95,0.99 -14.47,1.48 -22.57,1.48zm-736.8 -502.52c5.22,6.53 11.83,15.09 19.82,25.7 8,10.6 16.24,22.35 24.72,35.24 8.48,12.88 16.88,26.34 25.2,40.37 8.32,14.03 15.42,27.57 21.29,40.62l-51.88 0c-6.52,-12.4 -13.62,-24.96 -21.28,-37.68 -7.67,-12.73 -15.42,-24.88 -23.25,-36.46 -7.83,-11.59 -15.58,-22.43 -23.25,-32.55 -7.66,-10.11 -14.6,-18.92 -20.8,-26.43 -4.24,0.33 -8.56,0.49 -12.97,0.49 -4.4,0 -8.89,0 -13.45,0l-42.58 0 0 132.63 -47.47 0 0 -334.26c13.37,-3.26 28.3,-5.46 44.78,-6.61 16.47,-1.14 31.56,-1.71 45.27,-1.71 47.63,0 83.93,8.97 108.89,26.92 24.96,17.94 37.44,44.7 37.44,80.26 0,22.51 -5.96,41.76 -17.87,57.75 -11.91,15.99 -29.44,27.89 -52.61,35.72zm-71.94 -159.05c-20.23,0 -35.73,0.49 -46.49,1.47l0 127.73 33.77 0c16.31,0 30.99,-0.81 44.04,-2.45 13.05,-1.63 24.06,-4.73 33.04,-9.29 8.97,-4.57 15.9,-11.02 20.8,-19.33 4.89,-8.32 7.34,-19.34 7.34,-33.04 0,-12.72 -2.45,-23.33 -7.34,-31.81 -4.9,-8.48 -11.51,-15.17 -19.82,-20.07 -8.32,-4.89 -18.11,-8.32 -29.37,-10.27 -11.25,-1.96 -23.24,-2.94 -35.97,-2.94zm454.16 300.98c-5.54,-14.68 -10.76,-29.12 -15.66,-43.31 -4.89,-14.19 -9.95,-28.63 -15.17,-43.31l-153.67 0 -30.83 86.62 -49.43 0c13.05,-35.89 25.28,-69.09 36.7,-99.59 11.42,-30.51 22.6,-59.46 33.53,-86.87 10.93,-27.41 21.77,-53.59 32.54,-78.55 10.77,-24.96 22.02,-49.67 33.77,-74.14l43.56 0c11.74,24.47 23,49.18 33.77,74.14 10.76,24.96 21.61,51.14 32.54,78.55 10.93,27.41 22.1,56.36 33.52,86.87 11.42,30.5 23.66,63.7 36.71,99.59l-51.88 0zm-44.53 -125.78c-10.44,-28.38 -20.8,-55.87 -31.08,-82.46 -10.28,-26.59 -20.96,-52.12 -32.05,-76.59 -11.42,24.47 -22.27,50 -32.55,76.59 -10.28,26.59 -20.47,54.08 -30.59,82.46l126.27 0zm346.49 84.67l0 41.11 -204.08 0 0 -339.15 47.47 0 0 298.04 156.61 0z"/>
            <path class="fil0" d="M6768 0l1140 0c99,0 180,81 180,180l0 840c0,99 -81,180 -180,180l-1140 0c-99,0 -180,-81 -180,-180l0 -840c0,-99 81,-180 180,-180zm1031 812.83c0,4.72 -0.78,8.96 -2.33,12.71 -1.56,3.75 -3.64,6.92 -6.25,9.5 -2.61,2.58 -5.64,4.56 -9.09,5.92 -3.44,1.36 -7.05,2.04 -10.83,2.04 -3.78,0 -7.39,-0.68 -10.83,-2.04 -3.45,-1.36 -6.48,-3.34 -9.09,-5.92 -2.61,-2.58 -4.69,-5.75 -6.25,-9.5 -1.55,-3.75 -2.33,-7.99 -2.33,-12.71 0,-4.72 0.78,-8.96 2.33,-12.71 1.56,-3.75 3.64,-6.91 6.25,-9.5 2.61,-2.58 5.64,-4.55 9.09,-5.91 3.44,-1.36 7.05,-2.04 10.83,-2.04 3.78,0 7.39,0.68 10.83,2.04 3.45,1.36 6.48,3.33 9.09,5.91 2.61,2.59 4.69,5.75 6.25,9.5 1.55,3.75 2.33,7.99 2.33,12.71zm-6.08 0c0,-3.66 -0.56,-7.01 -1.67,-10.04 -1.11,-3.03 -2.65,-5.62 -4.62,-7.79 -1.98,-2.17 -4.34,-3.83 -7.09,-5 -2.75,-1.17 -5.76,-1.75 -9.04,-1.75 -3.28,0 -6.29,0.58 -9.04,1.75 -2.75,1.17 -5.11,2.83 -7.08,5 -1.98,2.17 -3.52,4.76 -4.63,7.79 -1.11,3.03 -1.67,6.38 -1.67,10.04 0,3.67 0.56,7.02 1.67,10.04 1.11,3.03 2.65,5.63 4.63,7.8 1.97,2.16 4.33,3.83 7.08,5 2.75,1.16 5.76,1.75 9.04,1.75 3.28,0 6.29,-0.59 9.04,-1.75 2.75,-1.17 5.11,-2.84 7.09,-5 1.97,-2.17 3.51,-4.77 4.62,-7.8 1.11,-3.02 1.67,-6.37 1.67,-10.04zm-14.17 16.59c-1.28,-2.5 -2.71,-4.88 -4.29,-7.13 -1.59,-2.25 -2.96,-4.04 -4.13,-5.37l-5.58 0 0 12.5 -5.92 0 0 -32.34c1.5,-0.33 3.09,-0.58 4.75,-0.75 1.67,-0.16 3.2,-0.25 4.59,-0.25 4.77,0 8.41,0.89 10.91,2.67 2.5,1.78 3.75,4.47 3.75,8.08 0,2.06 -0.54,3.85 -1.62,5.38 -1.08,1.52 -2.63,2.71 -4.63,3.54 0.56,0.67 1.2,1.5 1.92,2.5 0.72,1 1.47,2.11 2.25,3.33 0.78,1.22 1.56,2.5 2.33,3.84 0.78,1.33 1.48,2.66 2.09,4l-6.42 0zm-14 -17.34l3.17 0c2.5,0 4.58,-0.34 6.25,-1.04 1.66,-0.69 2.5,-2.12 2.5,-4.29 0,-2.06 -0.8,-3.49 -2.38,-4.29 -1.58,-0.81 -3.48,-1.21 -5.71,-1.21 -0.61,0 -1.25,0.01 -1.91,0.04 -0.67,0.03 -1.31,0.07 -1.92,0.13l0 10.66zm-881.9 -607.43l910 0c46.75,0 85,38.25 85,85l0 619.99c0,46.75 -38.25,85 -85,85l-910 0c-46.75,0 -85,-38.25 -85,-85l0 -619.99c0,-46.75 38.25,-85 85,-85zm0 30l910 0c30.25,0 55,24.74 55,55l0 620c0,30.25 -24.75,55 -55,55l-910 0c-30.25,0 -55,-24.75 -55,-55l0 -620c0,-30.26 24.75,-55 55,-55zm21.37 549.81c18.63,0 32.95,3.61 42.97,10.83 10.01,7.22 15.02,17.99 15.02,32.3 0,7.8 -1.37,14.47 -4.12,20 -2.74,5.53 -6.69,10.02 -11.86,13.47 -5.17,3.45 -11.45,5.95 -18.85,7.51 -7.41,1.56 -15.76,2.34 -25.08,2.34l-14.73 0 0 50.16 -18.57 0 0 -133.3c5.23,-1.3 11.07,-2.18 17.51,-2.63 6.45,-0.46 12.35,-0.68 17.71,-0.68zm1.53 16.58c-7.91,0 -13.97,0.2 -18.18,0.59l0 53.09 13.97 0c6.38,0 12.12,-0.43 17.22,-1.27 5.11,-0.85 9.41,-2.28 12.92,-4.3 3.51,-2.01 6.22,-4.78 8.14,-8.29 1.91,-3.52 2.87,-8 2.87,-13.47 0,-5.2 -0.99,-9.5 -2.97,-12.88 -1.98,-3.38 -4.66,-6.08 -8.04,-8.1 -3.38,-2.01 -7.3,-3.41 -11.77,-4.19 -4.46,-0.79 -9.19,-1.18 -14.16,-1.18zm158.67 120.03c-2.17,-5.85 -4.21,-11.61 -6.13,-17.27 -1.91,-5.66 -3.89,-11.42 -5.93,-17.27l-60.1 0 -12.06 34.54 -19.33 0c5.1,-14.31 9.89,-27.55 14.35,-39.71 4.47,-12.17 8.84,-23.72 13.12,-34.65 4.27,-10.93 8.51,-21.37 12.72,-31.32 4.21,-9.95 8.62,-19.81 13.21,-29.57l17.03 0c4.6,9.76 9,19.62 13.21,29.57 4.21,9.95 8.45,20.39 12.73,31.32 4.27,10.93 8.64,22.48 13.11,34.65 4.46,12.16 9.25,25.4 14.35,39.71l-20.28 0zm-17.42 -50.16c-4.08,-11.32 -8.14,-22.28 -12.15,-32.88 -4.02,-10.61 -8.2,-20.79 -12.54,-30.54 -4.47,9.75 -8.71,19.93 -12.73,30.54 -4.02,10.6 -8.01,21.56 -11.96,32.88l49.38 0zm146.61 50.16c-2.81,-4.81 -6.03,-10.21 -9.67,-16.2 -3.63,-5.98 -7.56,-12.2 -11.77,-18.64 -4.21,-6.44 -8.58,-12.97 -13.11,-19.61 -4.53,-6.64 -9.03,-13.04 -13.49,-19.22 -4.47,-6.18 -8.81,-12.01 -13.02,-17.47 -4.21,-5.47 -8.1,-10.28 -11.67,-14.44l0 105.58 -18.18 0 0 -135.25 14.73 0c6,6.51 12.41,14.09 19.24,22.74 6.82,8.65 13.59,17.56 20.29,26.74 6.7,9.17 13.01,18.18 18.94,27.03 5.94,8.84 10.95,16.72 15.03,23.61l0 -100.12 18.18 0 0 135.25 -15.5 0zm137.04 -135.25l0 16.4 -41.72 0 0 118.85 -18.57 0 0 -118.85 -41.73 0 0 -16.4 102.02 0zm9 67.53c0,-11.58 1.69,-21.79 5.07,-30.64 3.38,-8.85 7.97,-16.23 13.78,-22.15 5.8,-5.92 12.57,-10.38 20.29,-13.37 7.72,-2.99 15.91,-4.49 24.59,-4.49 8.55,0 16.62,1.5 24.21,4.49 7.6,2.99 14.26,7.45 20,13.37 5.75,5.92 10.31,13.3 13.69,22.15 3.38,8.85 5.07,19.06 5.07,30.64 0,11.58 -1.69,21.79 -5.07,30.64 -3.38,8.85 -7.94,16.23 -13.69,22.15 -5.74,5.92 -12.4,10.38 -20,13.37 -7.59,2.99 -15.66,4.49 -24.21,4.49 -8.68,0 -16.87,-1.5 -24.59,-4.49 -7.72,-2.99 -14.49,-7.45 -20.29,-13.37 -5.81,-5.92 -10.4,-13.3 -13.78,-22.15 -3.38,-8.85 -5.07,-19.06 -5.07,-30.64zm19.52 0c0,8.2 1.02,15.64 3.06,22.35 2.04,6.7 4.95,12.39 8.71,17.07 3.76,4.69 8.36,8.3 13.78,10.83 5.42,2.54 11.52,3.81 18.28,3.81 6.76,0 12.82,-1.27 18.18,-3.81 5.36,-2.53 9.92,-6.14 13.69,-10.83 3.76,-4.68 6.66,-10.37 8.71,-17.07 2.04,-6.71 3.06,-14.15 3.06,-22.35 0,-8.2 -1.02,-15.65 -3.06,-22.35 -2.05,-6.7 -4.95,-12.39 -8.71,-17.07 -3.77,-4.69 -8.33,-8.3 -13.69,-10.84 -5.36,-2.53 -11.42,-3.8 -18.18,-3.8 -6.76,0 -12.86,1.27 -18.28,3.8 -5.42,2.54 -10.02,6.15 -13.78,10.84 -3.76,4.68 -6.67,10.37 -8.71,17.07 -2.04,6.7 -3.06,14.15 -3.06,22.35zm225.66 67.72c-2.81,-4.81 -6.03,-10.21 -9.67,-16.2 -3.63,-5.98 -7.56,-12.2 -11.77,-18.64 -4.21,-6.44 -8.58,-12.97 -13.11,-19.61 -4.53,-6.64 -9.03,-13.04 -13.49,-19.22 -4.47,-6.18 -8.81,-12.01 -13.02,-17.47 -4.21,-5.47 -8.1,-10.28 -11.67,-14.44l0 105.58 -18.19 0 0 -135.25 14.74 0c6,6.51 12.41,14.09 19.24,22.74 6.82,8.65 13.58,17.56 20.28,26.74 6.7,9.17 13.02,18.18 18.95,27.03 5.94,8.84 10.94,16.72 15.03,23.61l0 -100.12 18.18 0 0 135.25 -15.5 0zm48.42 0l0 -135.25 80.96 0 0 16.2 -62.39 0 0 40.2 55.5 0 0 15.81 -55.5 0 0 46.84 67.18 0 0 16.2 -85.75 0z"/>
            <path class="fil0" d="M1174.89 599.83l0 41.11 -204.08 0 0 -339.15 47.48 0 0 298.04 156.6 0zm-346.49 -84.66c-10.44,-28.39 -20.8,-55.87 -31.08,-82.46 -10.27,-26.6 -20.96,-52.13 -32.05,-76.6 -11.42,24.47 -22.27,50 -32.55,76.6 -10.28,26.59 -20.47,54.07 -30.59,82.46l126.27 0zm44.54 125.77c-5.55,-14.68 -10.77,-29.11 -15.67,-43.31 -4.89,-14.19 -9.95,-28.63 -15.17,-43.31l-153.67 0 -30.83 86.62 -49.43 0c13.05,-35.88 25.28,-69.08 36.7,-99.59 11.42,-30.5 22.6,-59.46 33.53,-86.87 10.93,-27.4 21.78,-53.59 32.54,-78.55 10.77,-24.95 22.03,-49.67 33.77,-74.14l43.56 0c11.74,24.47 23,49.19 33.77,74.14 10.76,24.96 21.61,51.15 32.54,78.55 10.93,27.41 22.11,56.37 33.53,86.87 11.42,30.51 23.65,63.71 36.7,99.59l-51.87 0zm-454.17 -300.98c-20.23,0 -35.72,0.49 -46.49,1.47l0 127.73 33.77 0c16.31,0 30.99,-0.81 44.04,-2.44 13.05,-1.63 24.07,-4.73 33.04,-9.3 8.97,-4.57 15.9,-11.01 20.8,-19.33 4.89,-8.32 7.34,-19.33 7.34,-33.04 0,-12.72 -2.45,-23.32 -7.34,-31.81 -4.9,-8.48 -11.5,-15.17 -19.82,-20.06 -8.32,-4.9 -18.11,-8.32 -29.37,-10.28 -11.25,-1.96 -23.24,-2.94 -35.97,-2.94zm71.94 159.06c5.22,6.52 11.83,15.09 19.83,25.69 7.99,10.61 16.23,22.35 24.71,35.24 8.48,12.89 16.88,26.34 25.2,40.37 8.32,14.03 15.42,27.57 21.29,40.62l-51.87 0c-6.53,-12.39 -13.63,-24.95 -21.29,-37.68 -7.67,-12.72 -15.42,-24.88 -23.25,-36.46 -7.83,-11.58 -15.58,-22.43 -23.25,-32.54 -7.66,-10.12 -14.6,-18.93 -20.8,-26.43 -4.24,0.32 -8.56,0.49 -12.96,0.49 -4.41,0 -8.9,0 -13.46,0l-42.58 0 0 132.62 -47.47 0 0 -334.26c13.38,-3.26 28.3,-5.46 44.78,-6.6 16.47,-1.14 31.56,-1.72 45.27,-1.72 47.63,0 83.93,8.98 108.89,26.92 24.96,17.95 37.44,44.7 37.44,80.26 0,22.52 -5.96,41.76 -17.87,57.75 -11.9,15.99 -29.44,27.9 -52.61,35.73zm-195.86 -264.36l910 0c30.25,0 55,24.74 55,54.99l0 360.01c0,30.25 -24.75,55 -55,55l-910 0c-30.25,0 -55,-24.75 -55,-55l0 -360.01c0,-30.25 24.75,-54.99 55,-54.99z"/>
            <path class="fil0" d="M667.35 920.5c-6.18,-17.11 -12.3,-33.69 -18.38,-49.72 -6.08,-16.04 -12.4,-31.43 -18.96,-46.19 -6.75,14.76 -13.17,30.15 -19.24,46.19 -6.08,16.03 -12.11,32.61 -18.09,49.72l74.67 0z"/>
            <path class="fil0" d="M307.46 1001.53c-14.09,0 -26.92,-2.36 -38.49,-7.08 -11.58,-4.72 -21.52,-11.61 -29.81,-20.66 -8.3,-9.05 -14.72,-20.22 -19.25,-33.5 -4.53,-13.27 -6.8,-28.47 -6.8,-45.59 0,-17.11 2.56,-32.31 7.67,-45.59 5.11,-13.28 12.01,-24.45 20.69,-33.5 8.68,-9.05 18.81,-15.93 30.39,-20.66 11.58,-4.72 23.92,-7.08 37.05,-7.08 8.29,0 15.77,0.59 22.42,1.77 6.66,1.18 12.45,2.56 17.37,4.13 4.92,1.58 8.92,3.15 12.01,4.73 3.09,1.57 5.21,2.75 6.37,3.54l-8.11 23.61c-1.73,-1.19 -4.24,-2.46 -7.52,-3.84 -3.28,-1.38 -7,-2.76 -11.14,-4.13 -4.15,-1.38 -8.69,-2.51 -13.61,-3.4 -4.92,-0.88 -9.88,-1.32 -14.9,-1.32 -10.61,0 -20.16,1.86 -28.65,5.6 -8.49,3.74 -15.73,9.15 -21.71,16.23 -5.98,7.09 -10.56,15.69 -13.75,25.83 -3.18,10.13 -4.77,21.49 -4.77,34.08 0,12.2 1.4,23.31 4.19,33.35 2.8,10.03 7,18.64 12.59,25.82 5.6,7.18 12.59,12.74 20.99,16.67 8.39,3.94 18.18,5.91 29.37,5.91 12.93,0 23.64,-1.38 32.13,-4.14 8.49,-2.75 14.85,-5.21 19.1,-7.37l7.24 23.6c-1.36,0.99 -3.77,2.22 -7.24,3.69 -3.47,1.48 -7.82,2.91 -13.03,4.28 -5.2,1.38 -11.28,2.56 -18.23,3.54 -6.94,0.99 -14.47,1.48 -22.57,1.48zm213.88 -29.22l0 24.79 -120.69 0 0 -204.51 28.07 0 0 179.72 92.62 0zm171.62 24.79c-3.28,-8.85 -6.37,-17.56 -9.26,-26.11 -2.9,-8.56 -5.89,-17.27 -8.98,-26.12l-90.87 0 -18.23 52.23 -29.24 0c7.72,-21.64 14.96,-41.66 21.71,-60.05 6.75,-18.4 13.36,-35.86 19.82,-52.38 6.47,-16.53 12.88,-32.32 19.25,-47.37 6.37,-15.05 13.03,-29.95 19.97,-44.71l25.76 0c6.94,14.76 13.6,29.66 19.97,44.71 6.37,15.05 12.78,30.84 19.24,47.37 6.47,16.52 13.08,33.98 19.83,52.38 6.75,18.39 13.99,38.41 21.71,60.05l-30.68 0zm109.11 -20.36c29.32,0 43.99,-10.23 43.99,-30.69 0,-6.3 -1.3,-11.66 -3.91,-16.08 -2.6,-4.43 -6.12,-8.27 -10.56,-11.51 -4.44,-3.25 -9.5,-6.05 -15.2,-8.41 -5.69,-2.36 -11.72,-4.73 -18.09,-7.09 -7.33,-2.55 -14.27,-5.46 -20.83,-8.7 -6.56,-3.25 -12.26,-7.08 -17.08,-11.51 -4.82,-4.43 -8.63,-9.69 -11.43,-15.79 -2.8,-6.1 -4.2,-13.48 -4.2,-22.13 0,-17.91 5.98,-31.87 17.95,-41.91 11.96,-10.03 28.46,-15.05 49.49,-15.05 12.15,0 23.2,1.33 33.14,3.99 9.93,2.65 17.21,5.55 21.85,8.7l-8.98 23.31c-4.05,-2.55 -10.08,-5.06 -18.08,-7.52 -8.01,-2.46 -17.32,-3.69 -27.93,-3.69 -5.41,0 -10.42,0.59 -15.05,1.77 -4.63,1.18 -8.69,2.95 -12.16,5.31 -3.47,2.36 -6.22,5.36 -8.25,9 -2.02,3.64 -3.04,7.92 -3.04,12.84 0,5.51 1.07,10.13 3.19,13.87 2.12,3.74 5.11,7.03 8.97,9.89 3.86,2.85 8.35,5.46 13.46,7.82 5.11,2.36 10.75,4.72 16.93,7.08 8.68,3.54 16.64,7.08 23.88,10.62 7.23,3.55 13.5,7.78 18.81,12.69 5.3,4.92 9.4,10.78 12.3,17.56 2.89,6.79 4.34,15 4.34,24.64 0,17.91 -6.42,31.68 -19.25,41.32 -12.83,9.64 -30.92,14.46 -54.26,14.46 -7.91,0 -15.2,-0.54 -21.85,-1.62 -6.66,-1.08 -12.59,-2.36 -17.8,-3.84 -5.21,-1.48 -9.7,-3.05 -13.46,-4.72 -3.76,-1.67 -6.7,-3.1 -8.83,-4.28l8.39 -23.61c4.44,2.56 11.2,5.41 20.26,8.56 9.07,3.15 20.17,4.72 33.29,4.72zm153.97 0c29.32,0 43.99,-10.23 43.99,-30.69 0,-6.3 -1.31,-11.66 -3.91,-16.08 -2.61,-4.43 -6.13,-8.27 -10.57,-11.51 -4.43,-3.25 -9.5,-6.05 -15.19,-8.41 -5.69,-2.36 -11.72,-4.73 -18.09,-7.09 -7.33,-2.55 -14.28,-5.46 -20.83,-8.7 -6.56,-3.25 -12.26,-7.08 -17.08,-11.51 -4.82,-4.43 -8.64,-9.69 -11.43,-15.79 -2.8,-6.1 -4.2,-13.48 -4.2,-22.13 0,-17.91 5.98,-31.87 17.94,-41.91 11.97,-10.03 28.46,-15.05 49.49,-15.05 12.16,0 23.21,1.33 33.14,3.99 9.94,2.65 17.22,5.55 21.85,8.7l-8.97 23.31c-4.05,-2.55 -10.08,-5.06 -18.09,-7.52 -8,-2.46 -17.31,-3.69 -27.93,-3.69 -5.4,0 -10.41,0.59 -15.05,1.77 -4.63,1.18 -8.68,2.95 -12.15,5.31 -3.47,2.36 -6.22,5.36 -8.25,9 -2.02,3.64 -3.04,7.92 -3.04,12.84 0,5.51 1.06,10.13 3.19,13.87 2.12,3.74 5.11,7.03 8.97,9.89 3.86,2.85 8.34,5.46 13.46,7.82 5.11,2.36 10.75,4.72 16.93,7.08 8.68,3.54 16.64,7.08 23.87,10.62 7.24,3.55 13.51,7.78 18.82,12.69 5.3,4.92 9.4,10.78 12.3,17.56 2.89,6.79 4.34,15 4.34,24.64 0,17.91 -6.42,31.68 -19.25,41.32 -12.83,9.64 -30.92,14.46 -54.26,14.46 -7.92,0 -15.2,-0.54 -21.86,-1.62 -6.65,-1.08 -12.58,-2.36 -17.79,-3.84 -5.21,-1.48 -9.7,-3.05 -13.46,-4.72 -3.77,-1.67 -6.71,-3.1 -8.83,-4.28l8.39 -23.61c4.44,2.56 11.19,5.41 20.26,8.56 9.07,3.15 20.17,4.72 33.29,4.72zm107.37 -184.15l28.07 0 0 204.51 -28.07 0 0 -204.51zm164.1 208.94c-14.09,0 -26.92,-2.36 -38.5,-7.08 -11.57,-4.72 -21.51,-11.61 -29.81,-20.66 -8.29,-9.05 -14.71,-20.22 -19.24,-33.5 -4.54,-13.27 -6.8,-28.47 -6.8,-45.59 0,-17.11 2.55,-32.31 7.67,-45.59 5.11,-13.28 12.01,-24.45 20.69,-33.5 8.68,-9.05 18.81,-15.93 30.39,-20.66 11.57,-4.72 23.92,-7.08 37.04,-7.08 8.3,0 15.78,0.59 22.43,1.77 6.66,1.18 12.45,2.56 17.37,4.13 4.92,1.58 8.92,3.15 12.01,4.73 3.08,1.57 5.21,2.75 6.37,3.54l-8.11 23.61c-1.74,-1.19 -4.24,-2.46 -7.52,-3.84 -3.28,-1.38 -7,-2.76 -11.15,-4.13 -4.14,-1.38 -8.68,-2.51 -13.6,-3.4 -4.92,-0.88 -9.89,-1.32 -14.9,-1.32 -10.61,0 -20.17,1.86 -28.66,5.6 -8.48,3.74 -15.72,9.15 -21.7,16.23 -5.98,7.09 -10.57,15.69 -13.75,25.83 -3.18,10.13 -4.77,21.49 -4.77,34.08 0,12.2 1.39,23.31 4.19,33.35 2.8,10.03 7,18.64 12.59,25.82 5.6,7.18 12.59,12.74 20.98,16.67 8.4,3.94 18.19,5.91 29.38,5.91 12.93,0 23.64,-1.38 32.12,-4.14 8.5,-2.75 14.86,-5.21 19.11,-7.37l7.23 23.6c-1.35,0.99 -3.76,2.22 -7.23,3.69 -3.48,1.48 -7.82,2.91 -13.03,4.28 -5.21,1.38 -11.28,2.56 -18.23,3.54 -6.95,0.99 -14.47,1.48 -22.57,1.48zm-932.66 -796.88l910 0c46.75,0 85,38.25 85,85l0 360c0,46.75 -38.25,85 -85,85l-910 0c-46.75,0 -85,-38.25 -85,-85l0 -360c0,-46.75 38.25,-85 85,-85zm-114.85 -204.65l1140 0c99,0 180,81 180,180l0 840c0,99 -81,180 -180,180l-1140 0c-99,0 -180,-81 -180,-180l0 -840c0,-99 81,-180 180,-180z"/>
    </symbol>
    </g>
</svg>